<svg width="16" height="16" viewBox="0 0 16 16" fill="none" xmlns="http://www.w3.org/2000/svg">
<path d="M3.33333 11.3333H2.66666C2.31304 11.3333 1.9739 11.1929 1.72385 10.9428C1.4738 10.6928 1.33333 10.3536 1.33333 10V3.33333C1.33333 2.97971 1.4738 2.64057 1.72385 2.39052C1.9739 2.14048 2.31304 2 2.66666 2H13.3333C13.687 2 14.0261 2.14048 14.2761 2.39052C14.5262 2.64057 14.6667 2.97971 14.6667 3.33333V10C14.6667 10.3536 14.5262 10.6928 14.2761 10.9428C14.0261 11.1929 13.687 11.3333 13.3333 11.3333H12.6667M7.99999 10L11.3333 14H4.66666L7.99999 10Z" stroke="#DD3232" stroke-width="1.6" stroke-linecap="round" stroke-linejoin="round"/>
</svg>
