<svg width="16" height="16" viewBox="0 0 16 16" fill="none" xmlns="http://www.w3.org/2000/svg">
<g clip-path="url(#clip0_13_1154)">
<path d="M7.99998 5.33331C9.10455 5.33331 9.99998 4.43788 9.99998 3.33331C9.99998 2.22874 9.10455 1.33331 7.99998 1.33331C6.89541 1.33331 5.99998 2.22874 5.99998 3.33331C5.99998 4.43788 6.89541 5.33331 7.99998 5.33331ZM7.99998 5.33331V14.6666M7.99998 14.6666C6.23187 14.6666 4.53618 13.9643 3.28593 12.714C2.03569 11.4638 1.33331 9.76809 1.33331 7.99998H3.33331M7.99998 14.6666C9.76809 14.6666 11.4638 13.9643 12.714 12.714C13.9643 11.4638 14.6666 9.76809 14.6666 7.99998H12.6666" stroke="#3271DD" stroke-width="1.6" stroke-linecap="round" stroke-linejoin="round"/>
</g>
<defs>
<clipPath id="clip0_13_1154">
<rect width="16" height="16" fill="white"/>
</clipPath>
</defs>
</svg>
