<svg width="16" height="16" viewBox="0 0 16 16" fill="none" xmlns="http://www.w3.org/2000/svg">
<g clip-path="url(#clip0_13_1113)">
<path d="M9.15332 14C9.03612 14.2021 8.86788 14.3698 8.66547 14.4864C8.46306 14.603 8.23358 14.6643 7.99999 14.6643C7.7664 14.6643 7.53692 14.603 7.33451 14.4864C7.13209 14.3698 6.96386 14.2021 6.84666 14M12.42 8.66669C12.1234 7.58096 11.982 6.45872 12 5.33335C12.0011 4.60873 11.8053 3.89742 11.4335 3.27541C11.0618 2.65341 10.5281 2.14406 9.8894 1.80178C9.25071 1.4595 8.53104 1.29715 7.80726 1.33206C7.08347 1.36698 6.38277 1.59785 5.77999 2.00002M4.17332 4.17335C4.0575 4.54909 3.99906 4.94017 3.99999 5.33335C3.99999 10 1.99999 11.3334 1.99999 11.3334H11.3333M0.666656 0.666687L15.3333 15.3334" stroke="#3271DD" stroke-width="1.6" stroke-linecap="round" stroke-linejoin="round"/>
</g>
<defs>
<clipPath id="clip0_13_1113">
<rect width="16" height="16" fill="white"/>
</clipPath>
</defs>
</svg>
