<svg width="16" height="16" viewBox="0 0 16 16" fill="none" xmlns="http://www.w3.org/2000/svg">
<path d="M4 8.00002H9.33333C10.0406 8.00002 10.7189 7.71907 11.219 7.21897C11.719 6.71887 12 6.0406 12 5.33335C12 4.62611 11.719 3.94783 11.219 3.44774C10.7189 2.94764 10.0406 2.66669 9.33333 2.66669H4V8.00002ZM4 8.00002H10C10.7072 8.00002 11.3855 8.28097 11.8856 8.78107C12.3857 9.28117 12.6667 9.95944 12.6667 10.6667C12.6667 11.3739 12.3857 12.0522 11.8856 12.5523C11.3855 13.0524 10.7072 13.3334 10 13.3334H4V8.00002Z" stroke="#3271DD" stroke-width="1.6" stroke-linecap="round" stroke-linejoin="round"/>
</svg>
