<svg width="16" height="16" viewBox="0 0 16 16" fill="none" xmlns="http://www.w3.org/2000/svg">
<path d="M10.6667 14V3.33333C10.6667 2.97971 10.5262 2.64057 10.2762 2.39052C10.0261 2.14048 9.68697 2 9.33334 2H6.66668C6.31306 2 5.97392 2.14048 5.72387 2.39052C5.47382 2.64057 5.33334 2.97971 5.33334 3.33333V14M2.66668 4.66667H13.3333C14.0697 4.66667 14.6667 5.26362 14.6667 6V12.6667C14.6667 13.403 14.0697 14 13.3333 14H2.66668C1.9303 14 1.33334 13.403 1.33334 12.6667V6C1.33334 5.26362 1.9303 4.66667 2.66668 4.66667Z" stroke="#3271DD" stroke-width="1.6" stroke-linecap="round" stroke-linejoin="round"/>
</svg>
