<svg width="16" height="16" viewBox="0 0 16 16" fill="none" xmlns="http://www.w3.org/2000/svg">
<g clip-path="url(#clip0_13_931)">
<path d="M15.3333 12.6667C15.3333 13.0203 15.1929 13.3594 14.9428 13.6095C14.6928 13.8595 14.3536 14 14 14H2C1.64638 14 1.30724 13.8595 1.0572 13.6095C0.807148 13.3594 0.666672 13.0203 0.666672 12.6667V5.33333C0.666672 4.97971 0.807148 4.64057 1.0572 4.39052C1.30724 4.14048 1.64638 4 2 4H4.66667L6 2H10L11.3333 4H14C14.3536 4 14.6928 4.14048 14.9428 4.39052C15.1929 4.64057 15.3333 4.97971 15.3333 5.33333V12.6667Z" stroke="#3271DD" stroke-width="1.6" stroke-linecap="round" stroke-linejoin="round"/>
<path d="M8.00001 11.3333C9.47276 11.3333 10.6667 10.1394 10.6667 8.66667C10.6667 7.19391 9.47276 6 8.00001 6C6.52725 6 5.33334 7.19391 5.33334 8.66667C5.33334 10.1394 6.52725 11.3333 8.00001 11.3333Z" stroke="#3271DD" stroke-width="1.6" stroke-linecap="round" stroke-linejoin="round"/>
</g>
<defs>
<clipPath id="clip0_13_931">
<rect width="16" height="16" fill="white"/>
</clipPath>
</defs>
</svg>
