<svg width="16" height="16" viewBox="0 0 16 16" fill="none" xmlns="http://www.w3.org/2000/svg">
<g clip-path="url(#clip0_13_1103)">
<path d="M0.666656 0.666687L15.3333 15.3334M14 14H1.99999C1.64637 14 1.30723 13.8595 1.05718 13.6095C0.807132 13.3594 0.666656 13.0203 0.666656 12.6667V5.33335C0.666656 4.97973 0.807132 4.64059 1.05718 4.39054C1.30723 4.1405 1.64637 4.00002 1.99999 4.00002H3.99999M5.99999 2.00002H9.99999L11.3333 4.00002H14C14.3536 4.00002 14.6927 4.1405 14.9428 4.39054C15.1928 4.64059 15.3333 4.97973 15.3333 5.33335V11.56M10.1867 10.1867C9.96539 10.5101 9.67558 10.7807 9.33785 10.9793C9.00012 11.178 8.62276 11.2998 8.23262 11.336C7.84248 11.3723 7.44914 11.3221 7.08059 11.1891C6.71204 11.0561 6.37733 10.8435 6.10027 10.5664C5.82321 10.2893 5.61061 9.95464 5.47759 9.58608C5.34457 9.21753 5.29441 8.8242 5.33066 8.43406C5.36691 8.04392 5.4887 7.66656 5.68734 7.32883C5.88599 6.99109 6.15662 6.70129 6.47999 6.48002" stroke="#3271DD" stroke-width="1.6" stroke-linecap="round" stroke-linejoin="round"/>
</g>
<defs>
<clipPath id="clip0_13_1103">
<rect width="16" height="16" fill="white"/>
</clipPath>
</defs>
</svg>
