<svg width="16" height="16" viewBox="0 0 16 16" fill="none" xmlns="http://www.w3.org/2000/svg">
<path d="M1.33334 10.7334C1.97393 10.864 2.56196 11.1801 3.02426 11.6424C3.48655 12.1047 3.80269 12.6928 3.93334 13.3334M1.33334 8.03335C2.6872 8.18393 3.94952 8.79072 4.91275 9.75394C5.87597 10.7172 6.48276 11.9795 6.63334 13.3334M1.33334 5.33335V4.00002C1.33334 3.6464 1.47381 3.30726 1.72386 3.05721C1.97391 2.80716 2.31305 2.66669 2.66667 2.66669H13.3333C13.687 2.66669 14.0261 2.80716 14.2761 3.05721C14.5262 3.30726 14.6667 3.6464 14.6667 4.00002V12C14.6667 12.3536 14.5262 12.6928 14.2761 12.9428C14.0261 13.1929 13.687 13.3334 13.3333 13.3334H9.33334M1.33334 13.3334H1.34" stroke="#3271DD" stroke-width="1.6" stroke-linecap="round" stroke-linejoin="round"/>
</svg>
