<svg width="16" height="16" viewBox="0 0 16 16" fill="none" xmlns="http://www.w3.org/2000/svg">
<g clip-path="url(#clip0_13_1087)">
<path d="M8 5.33334C6.52724 5.33334 5.33334 6.52725 5.33334 8.00001C5.33334 9.47277 6.52724 10.6667 8 10.6667C9.47276 10.6667 10.6667 9.47277 10.6667 8.00001C10.6667 6.52725 9.47276 5.33334 8 5.33334ZM8 5.33334H14.1133M2.63334 4.04001L5.69334 9.33334M7.25334 14.6267L10.3067 9.33334M14.6667 8.00001C14.6667 11.6819 11.6819 14.6667 8 14.6667C4.3181 14.6667 1.33334 11.6819 1.33334 8.00001C1.33334 4.31811 4.3181 1.33334 8 1.33334C11.6819 1.33334 14.6667 4.31811 14.6667 8.00001Z" stroke="#3271DD" stroke-width="1.6" stroke-linecap="round" stroke-linejoin="round"/>
</g>
<defs>
<clipPath id="clip0_13_1087">
<rect width="16" height="16" fill="white"/>
</clipPath>
</defs>
</svg>
