<svg width="16" height="16" viewBox="0 0 16 16" fill="none" xmlns="http://www.w3.org/2000/svg">
<path d="M10.6667 2.66668H12C12.3536 2.66668 12.6927 2.80715 12.9428 3.0572C13.1928 3.30725 13.3333 3.64639 13.3333 4.00001V13.3333C13.3333 13.687 13.1928 14.0261 12.9428 14.2762C12.6927 14.5262 12.3536 14.6667 12 14.6667H3.99999C3.64637 14.6667 3.30723 14.5262 3.05718 14.2762C2.80713 14.0261 2.66666 13.687 2.66666 13.3333V4.00001C2.66666 3.64639 2.80713 3.30725 3.05718 3.0572C3.30723 2.80715 3.64637 2.66668 3.99999 2.66668H5.33332M5.99999 1.33334H9.99999C10.3682 1.33334 10.6667 1.63182 10.6667 2.00001V3.33334C10.6667 3.70153 10.3682 4.00001 9.99999 4.00001H5.99999C5.6318 4.00001 5.33332 3.70153 5.33332 3.33334V2.00001C5.33332 1.63182 5.6318 1.33334 5.99999 1.33334Z" stroke="#3271DD" stroke-width="1.6" stroke-linecap="round" stroke-linejoin="round"/>
</svg>
