<svg width="16" height="16" viewBox="0 0 16 16" fill="none" xmlns="http://www.w3.org/2000/svg">
<g clip-path="url(#clip0_13_1070)">
<path d="M10.6667 8.66668V14M5.33333 8.66668V14M8 10V15.3333M13.3333 11.0533C14.0342 10.7464 14.6081 10.2077 14.9587 9.52771C15.3094 8.84769 15.4154 8.06775 15.2591 7.3188C15.1027 6.56985 14.6935 5.89749 14.1 5.41457C13.5066 4.93165 12.7651 4.66758 12 4.66668H11.16C10.9487 3.84836 10.5459 3.09198 9.98487 2.45988C9.42384 1.82778 8.72062 1.33806 7.93317 1.03109C7.14573 0.724123 6.2966 0.60869 5.45578 0.694308C4.61497 0.779926 3.80654 1.06414 3.09713 1.52353C2.38772 1.98293 1.79764 2.60433 1.37553 3.33654C0.953427 4.06875 0.711378 4.89079 0.669338 5.73491C0.627297 6.57903 0.786469 7.42106 1.13373 8.19158C1.481 8.96211 2.00641 9.63907 2.66666 10.1667" stroke="#3271DD" stroke-width="1.6" stroke-linecap="round" stroke-linejoin="round"/>
</g>
<defs>
<clipPath id="clip0_13_1070">
<rect width="16" height="16" fill="white"/>
</clipPath>
</defs>
</svg>
