<svg width="16" height="16" viewBox="0 0 16 16" fill="none" xmlns="http://www.w3.org/2000/svg">
<g clip-path="url(#clip0_13_1066)">
<path d="M12 6.66666H11.16C10.9106 5.70065 10.3952 4.82398 9.67243 4.13625C8.94966 3.44852 8.04847 2.97732 7.07128 2.77617C6.09408 2.57503 5.08006 2.65202 4.14444 2.99838C3.20881 3.34475 2.38909 3.94661 1.77843 4.73558C1.16778 5.52454 0.79066 6.46897 0.689938 7.46156C0.589216 8.45414 0.768927 9.45508 1.20865 10.3506C1.64837 11.2462 2.33048 12.0004 3.17745 12.5277C4.02443 13.055 5.00232 13.3341 6 13.3333H12C12.8841 13.3333 13.7319 12.9821 14.357 12.357C14.9821 11.7319 15.3333 10.884 15.3333 9.99999C15.3333 9.11593 14.9821 8.26809 14.357 7.64297C13.7319 7.01785 12.8841 6.66666 12 6.66666Z" stroke="#3271DD" stroke-width="1.6" stroke-linecap="round" stroke-linejoin="round"/>
</g>
<defs>
<clipPath id="clip0_13_1066">
<rect width="16" height="16" fill="white"/>
</clipPath>
</defs>
</svg>
