<svg width="16" height="16" viewBox="0 0 16 16" fill="none" xmlns="http://www.w3.org/2000/svg">
<g clip-path="url(#clip0_13_933)">
<path d="M13.3333 11.72C14.0342 11.4131 14.6081 10.8744 14.9587 10.1944C15.3094 9.51435 15.4154 8.73441 15.2591 7.98546C15.1027 7.23651 14.6935 6.56414 14.1 6.08123C13.5066 5.59831 12.7651 5.33424 12 5.33333H11.16C10.9487 4.51502 10.5459 3.75863 9.98487 3.12654C9.42384 2.49444 8.72062 2.00472 7.93317 1.69775C7.14573 1.39078 6.2966 1.27535 5.45578 1.36096C4.61497 1.44658 3.80654 1.7308 3.09713 2.19019C2.38772 2.64958 1.79764 3.27099 1.37553 4.0032C0.953427 4.73541 0.711378 5.55745 0.669338 6.40157C0.627297 7.24569 0.786469 8.08771 1.13373 8.85824C1.481 9.62876 2.00641 10.3057 2.66666 10.8333M5.33333 10.6667H5.34M5.33333 13.3333H5.34M8 12H8.00666M8 14.6667H8.00666M10.6667 10.6667H10.6733M10.6667 13.3333H10.6733" stroke="#3271DD" stroke-width="1.6" stroke-linecap="round" stroke-linejoin="round"/>
</g>
<defs>
<clipPath id="clip0_13_933">
<rect width="16" height="16" fill="white"/>
</clipPath>
</defs>
</svg>
