<svg width="16" height="16" viewBox="0 0 16 16" fill="none" xmlns="http://www.w3.org/2000/svg">
<g clip-path="url(#clip0_13_1073)">
<path d="M12.6666 11.2667C13.4767 11.1022 14.1968 10.6425 14.6871 9.97698C15.1774 9.31143 15.4029 8.48745 15.3198 7.665C15.2367 6.84255 14.851 6.08031 14.2375 5.52625C13.6241 4.97218 12.8266 4.66583 12 4.66666H11.16C10.9391 3.81154 10.5093 3.02466 9.90924 2.37665C9.30915 1.72865 8.55753 1.23982 7.72186 0.954038C6.88619 0.66826 5.99263 0.594484 5.1214 0.739335C4.25017 0.884185 3.42856 1.24313 2.73031 1.78394C2.03207 2.32474 1.47906 3.03049 1.12093 3.8378C0.762804 4.64512 0.61077 5.52874 0.678478 6.40932C0.746187 7.28991 1.03152 8.1399 1.50886 8.88297C1.9862 9.62605 2.6406 10.239 3.41331 10.6667M8.66664 7.33333L5.99998 11.3333H9.99998L7.33331 15.3333" stroke="#3271DD" stroke-width="1.6" stroke-linecap="round" stroke-linejoin="round"/>
</g>
<defs>
<clipPath id="clip0_13_1073">
<rect width="16" height="16" fill="white"/>
</clipPath>
</defs>
</svg>
