<svg width="16" height="16" viewBox="0 0 16 16" fill="none" xmlns="http://www.w3.org/2000/svg">
<g clip-path="url(#clip0_13_945)">
<path d="M12 5.33332H12.6667C13.3739 5.33332 14.0522 5.61427 14.5523 6.11437C15.0524 6.61447 15.3333 7.29275 15.3333 7.99999C15.3333 8.70723 15.0524 9.38551 14.5523 9.88561C14.0522 10.3857 13.3739 10.6667 12.6667 10.6667H12M12 5.33332H1.33334V11.3333C1.33334 12.0406 1.6143 12.7188 2.11439 13.2189C2.61449 13.719 3.29277 14 4.00001 14H9.33334C10.0406 14 10.7189 13.719 11.219 13.2189C11.7191 12.7188 12 12.0406 12 11.3333V5.33332ZM4.00001 0.666656V2.66666M6.66668 0.666656V2.66666M9.33334 0.666656V2.66666" stroke="#3271DD" stroke-width="1.6" stroke-linecap="round" stroke-linejoin="round"/>
</g>
<defs>
<clipPath id="clip0_13_945">
<rect width="16" height="16" fill="white"/>
</clipPath>
</defs>
</svg>
