<svg width="16" height="16" viewBox="0 0 16 16" fill="none" xmlns="http://www.w3.org/2000/svg">
<g clip-path="url(#clip0_13_1059)">
<path d="M3.33333 10H2.66666C2.31304 10 1.9739 9.85953 1.72385 9.60949C1.4738 9.35944 1.33333 9.0203 1.33333 8.66668V2.66668C1.33333 2.31305 1.4738 1.97392 1.72385 1.72387C1.9739 1.47382 2.31304 1.33334 2.66666 1.33334H8.66666C9.02028 1.33334 9.35942 1.47382 9.60947 1.72387C9.85952 1.97392 9.99999 2.31305 9.99999 2.66668V3.33334M7.33333 6.00001H13.3333C14.0697 6.00001 14.6667 6.59696 14.6667 7.33334V13.3333C14.6667 14.0697 14.0697 14.6667 13.3333 14.6667H7.33333C6.59695 14.6667 5.99999 14.0697 5.99999 13.3333V7.33334C5.99999 6.59696 6.59695 6.00001 7.33333 6.00001Z" stroke="#3271DD" stroke-width="1.6" stroke-linecap="round" stroke-linejoin="round"/>
</g>
<defs>
<clipPath id="clip0_13_1059">
<rect width="16" height="16" fill="white"/>
</clipPath>
</defs>
</svg>
