<svg width="16" height="16" viewBox="0 0 16 16" fill="none" xmlns="http://www.w3.org/2000/svg">
<g clip-path="url(#clip0_13_1043)">
<path d="M5.99999 0.666672V2.66667M9.99999 0.666672V2.66667M5.99999 13.3333V15.3333M9.99999 13.3333V15.3333M13.3333 6.00001H15.3333M13.3333 9.33334H15.3333M0.666656 6.00001H2.66666M0.666656 9.33334H2.66666M3.99999 2.66667H12C12.7364 2.66667 13.3333 3.26363 13.3333 4.00001V12C13.3333 12.7364 12.7364 13.3333 12 13.3333H3.99999C3.26361 13.3333 2.66666 12.7364 2.66666 12V4.00001C2.66666 3.26363 3.26361 2.66667 3.99999 2.66667ZM5.99999 6.00001H9.99999V10H5.99999V6.00001Z" stroke="#3271DD" stroke-width="1.6" stroke-linecap="round" stroke-linejoin="round"/>
</g>
<defs>
<clipPath id="clip0_13_1043">
<rect width="16" height="16" fill="white"/>
</clipPath>
</defs>
</svg>
