<svg width="16" height="16" viewBox="0 0 16 16" fill="none" xmlns="http://www.w3.org/2000/svg">
<path d="M14 3.33333C14 4.4379 11.3137 5.33333 8 5.33333C4.68629 5.33333 2 4.4379 2 3.33333M14 3.33333C14 2.22876 11.3137 1.33333 8 1.33333C4.68629 1.33333 2 2.22876 2 3.33333M14 3.33333V12.6667C14 13.7733 11.3333 14.6667 8 14.6667C4.66667 14.6667 2 13.7733 2 12.6667V3.33333M14 7.99999C14 9.10666 11.3333 9.99999 8 9.99999C4.66667 9.99999 2 9.10666 2 7.99999" stroke="#3271DD" stroke-width="1.6" stroke-linecap="round" stroke-linejoin="round"/>
</svg>
