<svg width="16" height="16" viewBox="0 0 16 16" fill="none" xmlns="http://www.w3.org/2000/svg">
<g clip-path="url(#clip0_13_1040)">
<path d="M5.33334 7.99999H10.6667M8.66668 10.6667C8.66668 11.0349 8.3682 11.3333 8.00001 11.3333C7.63182 11.3333 7.33334 11.0349 7.33334 10.6667C7.33334 10.2985 7.63182 9.99999 8.00001 9.99999C8.3682 9.99999 8.66668 10.2985 8.66668 10.6667ZM8.66668 5.33333C8.66668 5.70152 8.3682 5.99999 8.00001 5.99999C7.63182 5.99999 7.33334 5.70152 7.33334 5.33333C7.33334 4.96514 7.63182 4.66666 8.00001 4.66666C8.3682 4.66666 8.66668 4.96514 8.66668 5.33333ZM14.6667 7.99999C14.6667 11.6819 11.6819 14.6667 8.00001 14.6667C4.31811 14.6667 1.33334 11.6819 1.33334 7.99999C1.33334 4.3181 4.31811 1.33333 8.00001 1.33333C11.6819 1.33333 14.6667 4.3181 14.6667 7.99999Z" stroke="#3271DD" stroke-width="1.6" stroke-linecap="round" stroke-linejoin="round"/>
</g>
<defs>
<clipPath id="clip0_13_1040">
<rect width="16" height="16" fill="white"/>
</clipPath>
</defs>
</svg>
