<svg width="16" height="16" viewBox="0 0 16 16" fill="none" xmlns="http://www.w3.org/2000/svg">
<g clip-path="url(#clip0_13_1048)">
<path d="M5.33333 11.3333L8 14M8 14L10.6667 11.3333M8 14V8M13.92 12.06C14.4996 11.6524 14.9342 11.0708 15.1609 10.3994C15.3875 9.7281 15.3943 9.00201 15.1803 8.32655C14.9663 7.65109 14.5426 7.06139 13.9707 6.64304C13.3988 6.22469 12.7086 5.99945 12 6H11.16C10.9595 5.21858 10.5843 4.49283 10.0627 3.87739C9.54117 3.26194 8.88677 2.77284 8.14881 2.4469C7.41085 2.12097 6.60856 1.96669 5.80235 1.99568C4.99614 2.02467 4.20701 2.23618 3.49437 2.61429C2.78173 2.99239 2.16415 3.52723 1.68813 4.17855C1.2121 4.82987 0.890036 5.5807 0.746175 6.3745C0.602314 7.1683 0.640408 7.9844 0.857588 8.76135C1.07477 9.5383 1.46537 10.2559 2 10.86" stroke="#3271DD" stroke-width="1.6" stroke-linecap="round" stroke-linejoin="round"/>
</g>
<defs>
<clipPath id="clip0_13_1048">
<rect width="16" height="16" fill="white"/>
</clipPath>
</defs>
</svg>
