<svg width="16" height="16" viewBox="0 0 16 16" fill="none" xmlns="http://www.w3.org/2000/svg">
<g clip-path="url(#clip0_13_1036)">
<path d="M5.70667 1.83334C8.62 5.85334 9.72 8.11334 11.06 13.6467M12.7533 3.39334C10.2733 6.29334 6.79333 7.16667 1.5 7.29334M14.5 8.56C12.1667 7.94 10.08 8.01334 8.54 8.56C6.82 9.17334 5.2 10.4667 3.58 12.7733M14.6667 8C14.6667 11.6819 11.6819 14.6667 8 14.6667C4.3181 14.6667 1.33333 11.6819 1.33333 8C1.33333 4.3181 4.3181 1.33334 8 1.33334C11.6819 1.33334 14.6667 4.3181 14.6667 8Z" stroke="#3271DD" stroke-width="1.6" stroke-linecap="round" stroke-linejoin="round"/>
</g>
<defs>
<clipPath id="clip0_13_1036">
<rect width="16" height="16" fill="white"/>
</clipPath>
</defs>
</svg>
