<svg width="16" height="16" viewBox="0 0 16 16" fill="none" xmlns="http://www.w3.org/2000/svg">
<g clip-path="url(#clip0_13_1023)">
<path d="M11.96 11.96C10.8204 12.8287 9.43276 13.3099 8.00002 13.3333C3.33335 13.3333 0.666687 8 0.666687 8C1.49595 6.45459 2.64611 5.1044 4.04002 4.04M6.60002 2.82666C7.05891 2.71925 7.52873 2.66556 8.00002 2.66666C12.6667 2.66666 15.3334 8 15.3334 8C14.9287 8.75707 14.4461 9.46982 13.8934 10.1267M9.41335 9.41333C9.23025 9.60983 9.00945 9.76743 8.76412 9.87675C8.51879 9.98606 8.25395 10.0448 7.98541 10.0496C7.71687 10.0543 7.45013 10.0049 7.20109 9.90432C6.95206 9.80374 6.72583 9.65402 6.53592 9.4641C6.346 9.27418 6.19628 9.04796 6.09569 8.79892C5.9951 8.54989 5.9457 8.28314 5.95044 8.0146C5.95518 7.74606 6.01396 7.48123 6.12327 7.2359C6.23258 6.99056 6.39019 6.76976 6.58669 6.58666M0.666687 0.666664L15.3334 15.3333" stroke="#3271DD" stroke-width="1.6" stroke-linecap="round" stroke-linejoin="round"/>
</g>
<defs>
<clipPath id="clip0_13_1023">
<rect width="16" height="16" fill="white"/>
</clipPath>
</defs>
</svg>
