<svg width="16" height="16" viewBox="0 0 16 16" fill="none" xmlns="http://www.w3.org/2000/svg">
<g clip-path="url(#clip0_13_1017)">
<path d="M8 1.33333H5.66667C5.04783 1.33333 4.45434 1.57917 4.01675 2.01675C3.57917 2.45434 3.33334 3.04783 3.33334 3.66667C3.33334 4.28551 3.57917 4.879 4.01675 5.31658C4.45434 5.75417 5.04783 6 5.66667 6M8 1.33333V6M8 1.33333H10.3333C10.6398 1.33333 10.9432 1.39369 11.2263 1.51095C11.5094 1.62821 11.7666 1.80008 11.9833 2.01675C12.1999 2.23342 12.3718 2.49065 12.4891 2.77374C12.6063 3.05683 12.6667 3.36025 12.6667 3.66667C12.6667 3.97308 12.6063 4.2765 12.4891 4.5596C12.3718 4.84269 12.1999 5.09991 11.9833 5.31658C11.7666 5.53325 11.5094 5.70513 11.2263 5.82239C10.9432 5.93965 10.6398 6 10.3333 6M8 6H5.66667M8 6H10.3333M8 6V10.6667M5.66667 6C5.04783 6 4.45434 6.24583 4.01675 6.68342C3.57917 7.121 3.33334 7.7145 3.33334 8.33333C3.33334 8.95217 3.57917 9.54566 4.01675 9.98325C4.45434 10.4208 5.04783 10.6667 5.66667 10.6667M10.3333 6C10.0269 6 9.7235 6.06035 9.44041 6.17761C9.15732 6.29488 8.90009 6.46675 8.68342 6.68342C8.46675 6.90009 8.29488 7.15731 8.17762 7.44041C8.06036 7.7235 8 8.02692 8 8.33333C8 8.63975 8.06036 8.94317 8.17762 9.22626C8.29488 9.50935 8.46675 9.76658 8.68342 9.98325C8.90009 10.1999 9.15732 10.3718 9.44041 10.4891C9.7235 10.6063 10.0269 10.6667 10.3333 10.6667C10.6398 10.6667 10.9432 10.6063 11.2263 10.4891C11.5094 10.3718 11.7666 10.1999 11.9833 9.98325C12.1999 9.76658 12.3718 9.50935 12.4891 9.22626C12.6063 8.94317 12.6667 8.63975 12.6667 8.33333C12.6667 8.02692 12.6063 7.7235 12.4891 7.44041C12.3718 7.15731 12.1999 6.90009 11.9833 6.68342C11.7666 6.46675 11.5094 6.29488 11.2263 6.17761C10.9432 6.06035 10.6398 6 10.3333 6ZM5.66667 10.6667C5.04783 10.6667 4.45434 10.9125 4.01675 11.3501C3.57917 11.7877 3.33334 12.3812 3.33334 13C3.33334 13.6188 3.57917 14.2123 4.01675 14.6499C4.45434 15.0875 5.04783 15.3333 5.66667 15.3333C6.28551 15.3333 6.879 15.0875 7.31658 14.6499C7.75417 14.2123 8 13.6188 8 13V10.6667M5.66667 10.6667H8" stroke="#3271DD" stroke-width="1.6" stroke-linecap="round" stroke-linejoin="round"/>
</g>
<defs>
<clipPath id="clip0_13_1017">
<rect width="16" height="16" fill="white"/>
</clipPath>
</defs>
</svg>
