<svg width="16" height="16" viewBox="0 0 16 16" fill="none" xmlns="http://www.w3.org/2000/svg">
<path d="M9.33332 1.33333H3.99999C3.64637 1.33333 3.30723 1.47381 3.05718 1.72386C2.80713 1.97391 2.66666 2.31305 2.66666 2.66667V13.3333C2.66666 13.687 2.80713 14.0261 3.05718 14.2761C3.30723 14.5262 3.64637 14.6667 3.99999 14.6667H12C12.3536 14.6667 12.6927 14.5262 12.9428 14.2761C13.1928 14.0261 13.3333 13.687 13.3333 13.3333V5.33333M9.33332 1.33333L13.3333 5.33333M9.33332 1.33333L9.33332 5.33333H13.3333M10.6667 8.66667H5.33332M10.6667 11.3333H5.33332M6.66666 6H5.33332" stroke="#3271DD" stroke-width="1.6" stroke-linecap="round" stroke-linejoin="round"/>
</svg>
