<svg width="16" height="16" viewBox="0 0 16 16" fill="none" xmlns="http://www.w3.org/2000/svg">
<g clip-path="url(#clip0_13_1004)">
<path d="M13.3333 8V14.6667H2.66668V8M8.00001 14.6667V4.66667M8.00001 4.66667H5.00001C4.55798 4.66667 4.13406 4.49107 3.8215 4.17851C3.50894 3.86595 3.33334 3.44203 3.33334 3C3.33334 2.55798 3.50894 2.13405 3.8215 1.82149C4.13406 1.50893 4.55798 1.33334 5.00001 1.33334C7.33334 1.33334 8.00001 4.66667 8.00001 4.66667ZM8.00001 4.66667H11C11.442 4.66667 11.866 4.49107 12.1785 4.17851C12.4911 3.86595 12.6667 3.44203 12.6667 3C12.6667 2.55798 12.4911 2.13405 12.1785 1.82149C11.866 1.50893 11.442 1.33334 11 1.33334C8.66668 1.33334 8.00001 4.66667 8.00001 4.66667ZM1.33334 4.66667H14.6667V8H1.33334V4.66667Z" stroke="#3271DD" stroke-width="1.6" stroke-linecap="round" stroke-linejoin="round"/>
</g>
<defs>
<clipPath id="clip0_13_1004">
<rect width="16" height="16" fill="white"/>
</clipPath>
</defs>
</svg>
