<svg width="16" height="16" viewBox="0 0 16 16" fill="none" xmlns="http://www.w3.org/2000/svg">
<g clip-path="url(#clip0_13_999)">
<path d="M6 12.6667C2.66667 13.6667 2.66667 11 1.33334 10.6667M10.6667 14.6667V12.0867C10.6917 11.7688 10.6487 11.4492 10.5407 11.1492C10.4326 10.8492 10.262 10.5756 10.04 10.3467C12.1333 10.1133 14.3333 9.32 14.3333 5.68C14.3332 4.74922 13.9751 3.85413 13.3333 3.18C13.6372 2.36567 13.6158 1.46557 13.2733 0.666666C13.2733 0.666666 12.4867 0.433332 10.6667 1.65333C9.13867 1.23921 7.528 1.23921 6 1.65333C4.18 0.433332 3.39334 0.666666 3.39334 0.666666C3.05092 1.46557 3.02943 2.36567 3.33334 3.18C2.68675 3.85913 2.32835 4.76231 2.33334 5.7C2.33334 9.31333 4.53334 10.1067 6.62667 10.3667C6.40733 10.5933 6.23818 10.8636 6.13021 11.1599C6.02224 11.4563 5.97787 11.772 6 12.0867V14.6667" stroke="#3271DD" stroke-width="1.6" stroke-linecap="round" stroke-linejoin="round"/>
</g>
<defs>
<clipPath id="clip0_13_999">
<rect width="16" height="16" fill="white"/>
</clipPath>
</defs>
</svg>
