<svg width="16" height="16" viewBox="0 0 16 16" fill="none" xmlns="http://www.w3.org/2000/svg">
<g clip-path="url(#clip0_13_1037)">
<path d="M15.1 9.59334L8 14.7533L0.9 9.59334C0.804817 9.52334 0.734213 9.42502 0.69829 9.31247C0.662366 9.19991 0.662965 9.07887 0.7 8.96667L1.51333 6.44667L3.14 1.44C3.15578 1.39921 3.18089 1.36268 3.21333 1.33334C3.26616 1.28509 3.33512 1.25833 3.40667 1.25833C3.47821 1.25833 3.54717 1.28509 3.6 1.33334C3.63426 1.36645 3.6595 1.40775 3.67333 1.45334L5.3 6.44667H10.7L12.3267 1.44C12.3424 1.39921 12.3676 1.36268 12.4 1.33334C12.4528 1.28509 12.5218 1.25833 12.5933 1.25833C12.6649 1.25833 12.7338 1.28509 12.7867 1.33334C12.8209 1.36645 12.8462 1.40775 12.86 1.45334L14.4867 6.46L15.3333 8.96667C15.367 9.08233 15.3625 9.20576 15.3205 9.31865C15.2784 9.43155 15.2011 9.52787 15.1 9.59334Z" stroke="#3271DD" stroke-width="1.6" stroke-linecap="round" stroke-linejoin="round"/>
</g>
<defs>
<clipPath id="clip0_13_1037">
<rect width="16" height="16" fill="white"/>
</clipPath>
</defs>
</svg>
