<svg width="16" height="16" viewBox="0 0 16 16" fill="none" xmlns="http://www.w3.org/2000/svg">
<g clip-path="url(#clip0_13_996)">
<path d="M14.6667 7.99999C14.6667 11.6819 11.6819 14.6667 8 14.6667M14.6667 7.99999C14.6667 4.3181 11.6819 1.33333 8 1.33333M14.6667 7.99999H1.33334M8 14.6667C4.3181 14.6667 1.33334 11.6819 1.33334 7.99999M8 14.6667C9.66752 12.8411 10.6152 10.472 10.6667 7.99999C10.6152 5.52802 9.66752 3.1589 8 1.33333M8 14.6667C6.33248 12.8411 5.38483 10.472 5.33334 7.99999C5.38483 5.52802 6.33248 3.1589 8 1.33333M1.33334 7.99999C1.33334 4.3181 4.3181 1.33333 8 1.33333" stroke="#3271DD" stroke-width="1.6" stroke-linecap="round" stroke-linejoin="round"/>
</g>
<defs>
<clipPath id="clip0_13_996">
<rect width="16" height="16" fill="white"/>
</clipPath>
</defs>
</svg>
