<svg width="16" height="16" viewBox="0 0 16 16" fill="none" xmlns="http://www.w3.org/2000/svg">
<path d="M14.6667 8H1.33334M14.6667 8V12C14.6667 12.3536 14.5262 12.6928 14.2762 12.9428C14.0261 13.1929 13.687 13.3333 13.3333 13.3333H2.66668C2.31305 13.3333 1.97392 13.1929 1.72387 12.9428C1.47382 12.6928 1.33334 12.3536 1.33334 12V8M14.6667 8L12.3667 3.40667C12.2563 3.18453 12.0861 2.99759 11.8753 2.86686C11.6645 2.73613 11.4214 2.6668 11.1733 2.66667H4.82668C4.57862 2.6668 4.33552 2.73613 4.12471 2.86686C3.91389 2.99759 3.74373 3.18453 3.63334 3.40667L1.33334 8M4.00001 10.6667H4.00668M6.66668 10.6667H6.67334" stroke="#3271DD" stroke-width="1.6" stroke-linecap="round" stroke-linejoin="round"/>
</svg>
