<svg width="16" height="16" viewBox="0 0 16 16" fill="none" xmlns="http://www.w3.org/2000/svg">
<path d="M14.6667 7.99999H10.6667L9.33334 9.99999H6.66667L5.33334 7.99999H1.33334M14.6667 7.99999V12C14.6667 12.3536 14.5262 12.6927 14.2761 12.9428C14.0261 13.1928 13.687 13.3333 13.3333 13.3333H2.66667C2.31305 13.3333 1.97391 13.1928 1.72386 12.9428C1.47381 12.6927 1.33334 12.3536 1.33334 12V7.99999M14.6667 7.99999L12.3667 3.40666C12.2563 3.18451 12.0861 2.99757 11.8753 2.86684C11.6645 2.73612 11.4214 2.66679 11.1733 2.66666H4.82667C4.57861 2.66679 4.33551 2.73612 4.1247 2.86684C3.91389 2.99757 3.74372 3.18451 3.63334 3.40666L1.33334 7.99999" stroke="#3271DD" stroke-width="1.6" stroke-linecap="round" stroke-linejoin="round"/>
</svg>
