<svg width="16" height="16" viewBox="0 0 16 16" fill="none" xmlns="http://www.w3.org/2000/svg">
<g clip-path="url(#clip0_13_986)">
<path d="M11.6667 4.33334H11.6733M4.66668 1.33334H11.3333C13.1743 1.33334 14.6667 2.82573 14.6667 4.66668V11.3333C14.6667 13.1743 13.1743 14.6667 11.3333 14.6667H4.66668C2.82573 14.6667 1.33334 13.1743 1.33334 11.3333V4.66668C1.33334 2.82573 2.82573 1.33334 4.66668 1.33334ZM10.6667 7.58001C10.749 8.13484 10.6542 8.70149 10.3958 9.19935C10.1375 9.69722 9.72877 10.101 9.22776 10.3531C8.72675 10.6053 8.15897 10.6931 7.6052 10.604C7.05143 10.5149 6.53985 10.2534 6.14324 9.85678C5.74662 9.46017 5.48516 8.94859 5.39605 8.39482C5.30695 7.84105 5.39472 7.27327 5.64689 6.77226C5.89907 6.27125 6.3028 5.8625 6.80067 5.60417C7.29853 5.34584 7.86518 5.25107 8.42001 5.33334C8.98596 5.41727 9.50991 5.68099 9.91447 6.08555C10.319 6.49011 10.5828 7.01406 10.6667 7.58001Z" stroke="#3271DD" stroke-width="1.6" stroke-linecap="round" stroke-linejoin="round"/>
</g>
<defs>
<clipPath id="clip0_13_986">
<rect width="16" height="16" fill="white"/>
</clipPath>
</defs>
</svg>
