<svg width="16" height="16" viewBox="0 0 16 16" fill="none" xmlns="http://www.w3.org/2000/svg">
<g clip-path="url(#clip0_13_976)">
<path d="M3.28666 3.28668L6.11333 6.11334M9.88666 9.88668L12.7133 12.7133M12.7133 3.28668L9.88666 6.11334L12.24 3.76001M3.28666 12.7133L6.11333 9.88668M14.6667 8.00001C14.6667 11.6819 11.6819 14.6667 7.99999 14.6667C4.3181 14.6667 1.33333 11.6819 1.33333 8.00001C1.33333 4.31811 4.3181 1.33334 7.99999 1.33334C11.6819 1.33334 14.6667 4.31811 14.6667 8.00001ZM10.6667 8.00001C10.6667 9.47277 9.47275 10.6667 7.99999 10.6667C6.52724 10.6667 5.33333 9.47277 5.33333 8.00001C5.33333 6.52725 6.52724 5.33334 7.99999 5.33334C9.47275 5.33334 10.6667 6.52725 10.6667 8.00001Z" stroke="#3271DD" stroke-width="1.6" stroke-linecap="round" stroke-linejoin="round"/>
</g>
<defs>
<clipPath id="clip0_13_976">
<rect width="16" height="16" fill="white"/>
</clipPath>
</defs>
</svg>
