<svg width="16" height="16" viewBox="0 0 16 16" fill="none" xmlns="http://www.w3.org/2000/svg">
<path d="M10.6667 5.33334C11.7275 5.33334 12.745 5.75477 13.4951 6.50492C14.2452 7.25506 14.6667 8.27248 14.6667 9.33334V14H12V9.33334C12 8.97972 11.8595 8.64058 11.6095 8.39053C11.3594 8.14049 11.0203 8.00001 10.6667 8.00001C10.313 8.00001 9.97391 8.14049 9.72386 8.39053C9.47381 8.64058 9.33334 8.97972 9.33334 9.33334V14H6.66667V9.33334C6.66667 8.27248 7.0881 7.25506 7.83824 6.50492C8.58839 5.75477 9.6058 5.33334 10.6667 5.33334Z" stroke="#3271DD" stroke-width="1.6" stroke-linecap="round" stroke-linejoin="round"/>
<path d="M4 6.00001H1.33334V14H4V6.00001Z" stroke="#3271DD" stroke-width="1.6" stroke-linecap="round" stroke-linejoin="round"/>
<path d="M2.66667 4.00001C3.40305 4.00001 4 3.40306 4 2.66668C4 1.9303 3.40305 1.33334 2.66667 1.33334C1.93029 1.33334 1.33334 1.9303 1.33334 2.66668C1.33334 3.40306 1.93029 4.00001 2.66667 4.00001Z" stroke="#3271DD" stroke-width="1.6" stroke-linecap="round" stroke-linejoin="round"/>
</svg>
