<svg width="16" height="16" viewBox="0 0 16 16" fill="none" xmlns="http://www.w3.org/2000/svg">
<g clip-path="url(#clip0_13_1028)">
<path d="M10 4.66666H12C12.4377 4.66666 12.8712 4.75288 13.2756 4.92039C13.68 5.08791 14.0475 5.33344 14.357 5.64297C14.6665 5.9525 14.9121 6.31996 15.0796 6.72438C15.2471 7.1288 15.3333 7.56225 15.3333 7.99999C15.3333 8.43773 15.2471 8.87118 15.0796 9.2756C14.9121 9.68002 14.6665 10.0475 14.357 10.357C14.0475 10.6665 13.68 10.9121 13.2756 11.0796C12.8712 11.2471 12.4377 11.3333 12 11.3333H10M6 11.3333H4C3.56226 11.3333 3.1288 11.2471 2.72439 11.0796C2.31997 10.9121 1.9525 10.6665 1.64297 10.357C1.01785 9.73189 0.666664 8.88404 0.666664 7.99999C0.666664 7.11593 1.01785 6.26809 1.64297 5.64297C2.2681 5.01785 3.11594 4.66666 4 4.66666H6M5.33333 7.99999H10.6667" stroke="#3271DD" stroke-width="1.6" stroke-linecap="round" stroke-linejoin="round"/>
</g>
<defs>
<clipPath id="clip0_13_1028">
<rect width="16" height="16" fill="white"/>
</clipPath>
</defs>
</svg>
