<svg width="16" height="16" viewBox="0 0 16 16" fill="none" xmlns="http://www.w3.org/2000/svg">
<g clip-path="url(#clip0_13_957)">
<path d="M0.666687 0.666657L15.3334 15.3333M6.00002 5.99999V7.99999C6.00037 8.3953 6.11785 8.78164 6.33764 9.11021C6.55743 9.43879 6.86966 9.69486 7.23489 9.84609C7.60013 9.99732 8.00199 10.0369 8.38972 9.9599C8.77745 9.88287 9.13366 9.69267 9.41335 9.41332M10 6.22666V2.66666C10.0005 2.17068 9.81671 1.6922 9.48427 1.32412C9.15183 0.956044 8.69449 0.724618 8.20102 0.674772C7.70755 0.624927 7.21316 0.760218 6.81383 1.05438C6.4145 1.34855 6.13872 1.7806 6.04002 2.26666M11.3334 11.3C10.6825 11.9643 9.84811 12.419 8.93709 12.6057C8.02608 12.7925 7.08004 12.7028 6.22035 12.3482C5.36066 11.9936 4.62653 11.3902 4.11213 10.6154C3.59774 9.84068 3.32655 8.92992 3.33335 7.99999V6.66666M12.6667 6.66666V7.99999C12.6664 8.27495 12.6419 8.54935 12.5934 8.81999M8.00002 12.6667V15.3333M5.33335 15.3333H10.6667" stroke="#3271DD" stroke-width="1.6" stroke-linecap="round" stroke-linejoin="round"/>
</g>
<defs>
<clipPath id="clip0_13_957">
<rect width="16" height="16" fill="white"/>
</clipPath>
</defs>
</svg>
