<svg width="16" height="16" viewBox="0 0 16 16" fill="none" xmlns="http://www.w3.org/2000/svg">
<g clip-path="url(#clip0_13_949)">
<path d="M12.6667 6.66669V8.00002C12.6667 9.2377 12.175 10.4247 11.2998 11.2999C10.4247 12.175 9.23769 12.6667 8.00001 12.6667M8.00001 12.6667C6.76233 12.6667 5.57535 12.175 4.70018 11.2999C3.82501 10.4247 3.33334 9.2377 3.33334 8.00002V6.66669M8.00001 12.6667V15.3334M5.33334 15.3334H10.6667M8.00001 0.666687C7.46958 0.666687 6.96087 0.877401 6.5858 1.25247C6.21072 1.62755 6.00001 2.13625 6.00001 2.66669V8.00002C6.00001 8.53045 6.21072 9.03916 6.5858 9.41423C6.96087 9.78931 7.46958 10 8.00001 10C8.53044 10 9.03915 9.78931 9.41422 9.41423C9.7893 9.03916 10 8.53045 10 8.00002V2.66669C10 2.13625 9.7893 1.62755 9.41422 1.25247C9.03915 0.877401 8.53044 0.666687 8.00001 0.666687Z" stroke="#3271DD" stroke-width="1.6" stroke-linecap="round" stroke-linejoin="round"/>
</g>
<defs>
<clipPath id="clip0_13_949">
<rect width="16" height="16" fill="white"/>
</clipPath>
</defs>
</svg>
