<svg width="16" height="16" viewBox="0 0 16 16" fill="none" xmlns="http://www.w3.org/2000/svg">
<path d="M7.99999 8.66665C8.36818 8.66665 8.66666 8.36817 8.66666 7.99998C8.66666 7.63179 8.36818 7.33331 7.99999 7.33331C7.6318 7.33331 7.33332 7.63179 7.33332 7.99998C7.33332 8.36817 7.6318 8.66665 7.99999 8.66665Z" stroke="#3271DD" stroke-width="1.6" stroke-linecap="round" stroke-linejoin="round"/>
<path d="M12.6667 8.66665C13.0348 8.66665 13.3333 8.36817 13.3333 7.99998C13.3333 7.63179 13.0348 7.33331 12.6667 7.33331C12.2985 7.33331 12 7.63179 12 7.99998C12 8.36817 12.2985 8.66665 12.6667 8.66665Z" stroke="#3271DD" stroke-width="1.6" stroke-linecap="round" stroke-linejoin="round"/>
<path d="M3.33332 8.66665C3.70151 8.66665 3.99999 8.36817 3.99999 7.99998C3.99999 7.63179 3.70151 7.33331 3.33332 7.33331C2.96513 7.33331 2.66666 7.63179 2.66666 7.99998C2.66666 8.36817 2.96513 8.66665 3.33332 8.66665Z" stroke="#3271DD" stroke-width="1.6" stroke-linecap="round" stroke-linejoin="round"/>
</svg>
