<svg width="16" height="16" viewBox="0 0 16 16" fill="none" xmlns="http://www.w3.org/2000/svg">
<g clip-path="url(#clip0_13_1110)">
<path d="M15.3333 4.66669V0.666687M15.3333 0.666687H11.3333M15.3333 0.666687L10.6667 5.33335M14.6667 11.28V13.28C14.6674 13.4657 14.6294 13.6495 14.555 13.8196C14.4806 13.9897 14.3715 14.1424 14.2347 14.2679C14.0979 14.3934 13.9364 14.489 13.7605 14.5485C13.5846 14.608 13.3983 14.6301 13.2133 14.6134C11.1619 14.3904 9.19134 13.6894 7.46001 12.5667C5.84922 11.5431 4.48356 10.1775 3.46001 8.56669C2.33333 6.82749 1.63217 4.84735 1.41334 2.78669C1.39668 2.60233 1.41859 2.41653 1.47767 2.2411C1.53676 2.06568 1.63172 1.90448 1.75652 1.76777C1.88131 1.63106 2.03321 1.52183 2.20253 1.44703C2.37186 1.37224 2.5549 1.33353 2.74001 1.33335H4.74001C5.06354 1.33017 5.3772 1.44474 5.62251 1.65571C5.86783 1.86668 6.02806 2.15965 6.07334 2.48002C6.15775 3.12006 6.31431 3.7485 6.54001 4.35335C6.6297 4.59197 6.64911 4.8513 6.59594 5.10061C6.54277 5.34992 6.41925 5.57876 6.24001 5.76002L5.39334 6.60669C6.34238 8.27572 7.72431 9.65765 9.39334 10.6067L10.24 9.76002C10.4213 9.58078 10.6501 9.45725 10.8994 9.40408C11.1487 9.35091 11.4081 9.37032 11.6467 9.46002C12.2515 9.68572 12.88 9.84227 13.52 9.92669C13.8439 9.97237 14.1396 10.1355 14.351 10.385C14.5624 10.6345 14.6748 10.9531 14.6667 11.28Z" stroke="#3271DD" stroke-width="1.6" stroke-linecap="round" stroke-linejoin="round"/>
</g>
<defs>
<clipPath id="clip0_13_1110">
<rect width="16" height="16" fill="white"/>
</clipPath>
</defs>
</svg>
