<svg width="16" height="16" viewBox="0 0 16 16" fill="none" xmlns="http://www.w3.org/2000/svg">
<g clip-path="url(#clip0_13_944)">
<path d="M7.11999 8.87335C7.79656 9.55052 8.5612 10.1335 9.39332 10.6067L10.24 9.76002C10.4212 9.58078 10.6501 9.45725 10.8994 9.40408C11.1487 9.35091 11.408 9.37033 11.6467 9.46002C12.2515 9.68572 12.8799 9.84227 13.52 9.92669C13.8404 9.97197 14.1333 10.1322 14.3443 10.3775C14.5553 10.6228 14.6698 10.9365 14.6667 11.26V13.26C14.6674 13.4457 14.6294 13.6295 14.555 13.7996C14.4806 13.9697 14.3715 14.1224 14.2347 14.2479C14.0979 14.3734 13.9364 14.469 13.7605 14.5285C13.5846 14.588 13.3982 14.6101 13.2133 14.5934C11.1619 14.3704 9.19132 13.6694 7.45999 12.5467C6.65684 12.0367 5.91234 11.4398 5.23999 10.7667M3.45999 8.54002C2.33723 6.80869 1.63623 4.83813 1.41332 2.78669C1.39666 2.60233 1.41857 2.41653 1.47766 2.2411C1.53674 2.06568 1.6317 1.90448 1.7565 1.76777C1.8813 1.63106 2.03319 1.52183 2.20252 1.44704C2.37184 1.37224 2.55488 1.33353 2.73999 1.33335H4.73999C5.06353 1.33017 5.37718 1.44474 5.6225 1.65571C5.86781 1.86668 6.02804 2.15965 6.07332 2.48002C6.15774 3.12006 6.31429 3.74851 6.53999 4.35335C6.62969 4.59197 6.6491 4.8513 6.59593 5.10061C6.54276 5.34992 6.41923 5.57876 6.23999 5.76002L5.39332 6.60669M15.3333 0.666687L0.666656 15.3334" stroke="#3271DD" stroke-width="1.6" stroke-linecap="round" stroke-linejoin="round"/>
</g>
<defs>
<clipPath id="clip0_13_944">
<rect width="16" height="16" fill="white"/>
</clipPath>
</defs>
</svg>
