<svg width="16" height="16" viewBox="0 0 16 16" fill="none" xmlns="http://www.w3.org/2000/svg">
<g clip-path="url(#clip0_13_985)">
<path d="M14.14 10.5933C13.7159 11.5963 13.0525 12.4801 12.2079 13.1675C11.3633 13.8549 10.3632 14.3249 9.29496 14.5365C8.22674 14.7481 7.12295 14.6947 6.0801 14.3812C5.03725 14.0676 4.08709 13.5034 3.31268 12.7377C2.53828 11.9721 1.96321 11.0285 1.63776 9.98928C1.31231 8.95008 1.24638 7.84697 1.44574 6.7764C1.64509 5.70583 2.10367 4.7004 2.78137 3.848C3.45907 2.9956 4.33526 2.32219 5.33334 1.88665M14.6667 7.99998C14.6667 7.1245 14.4942 6.25759 14.1592 5.44876C13.8242 4.63992 13.3331 3.90499 12.714 3.28593C12.095 2.66688 11.3601 2.17581 10.5512 1.84078C9.74239 1.50575 8.87548 1.33331 8 1.33331V7.99998H14.6667Z" stroke="#3271DD" stroke-width="1.6" stroke-linecap="round" stroke-linejoin="round"/>
</g>
<defs>
<clipPath id="clip0_13_985">
<rect width="16" height="16" fill="white"/>
</clipPath>
</defs>
</svg>
