<svg width="16" height="16" viewBox="0 0 16 16" fill="none" xmlns="http://www.w3.org/2000/svg">
<path d="M5.33333 6.66667L7.99999 9.33333L10.6667 6.66667M2.66666 2H13.3333C13.687 2 14.0261 2.14048 14.2761 2.39052C14.5262 2.64057 14.6667 2.97971 14.6667 3.33333V7.33333C14.6667 9.10144 13.9643 10.7971 12.714 12.0474C11.4638 13.2976 9.7681 14 7.99999 14C7.12452 14 6.25761 13.8276 5.44877 13.4925C4.63993 13.1575 3.90501 12.6664 3.28595 12.0474C2.03571 10.7971 1.33333 9.10144 1.33333 7.33333V3.33333C1.33333 2.97971 1.4738 2.64057 1.72385 2.39052C1.9739 2.14048 2.31304 2 2.66666 2Z" stroke="#3271DD" stroke-width="1.6" stroke-linecap="round" stroke-linejoin="round"/>
</svg>
