<svg width="16" height="16" viewBox="0 0 16 16" fill="none" xmlns="http://www.w3.org/2000/svg">
<g clip-path="url(#clip0_13_1105)">
<path d="M4.00001 5.99998V1.33331H12V5.99998M4.00001 12H2.66668C2.31305 12 1.97392 11.8595 1.72387 11.6095C1.47382 11.3594 1.33334 11.0203 1.33334 10.6666V7.33331C1.33334 6.97969 1.47382 6.64055 1.72387 6.3905C1.97392 6.14046 2.31305 5.99998 2.66668 5.99998H13.3333C13.687 5.99998 14.0261 6.14046 14.2762 6.3905C14.5262 6.64055 14.6667 6.97969 14.6667 7.33331V10.6666C14.6667 11.0203 14.5262 11.3594 14.2762 11.6095C14.0261 11.8595 13.687 12 13.3333 12H12M4.00001 9.33331H12V14.6666H4.00001V9.33331Z" stroke="#3271DD" stroke-width="1.6" stroke-linecap="round" stroke-linejoin="round"/>
</g>
<defs>
<clipPath id="clip0_13_1105">
<rect width="16" height="16" fill="white"/>
</clipPath>
</defs>
</svg>
