<svg width="16" height="16" viewBox="0 0 16 16" fill="none" xmlns="http://www.w3.org/2000/svg">
<path d="M10.8267 5.17335C11.1986 5.54484 11.4936 5.98599 11.6949 6.47159C11.8962 6.95718 11.9998 7.47769 11.9998 8.00335C11.9998 8.52901 11.8962 9.04952 11.6949 9.53511C11.4936 10.0207 11.1986 10.4619 10.8267 10.8333M5.17332 10.8267C4.80142 10.4552 4.50638 10.014 4.30508 9.52844C4.10379 9.04285 4.00018 8.52234 4.00018 7.99668C4.00018 7.47102 4.10379 6.95051 4.30508 6.46492C4.50638 5.97933 4.80142 5.53817 5.17332 5.16668M12.7133 3.28668C13.9631 4.53687 14.6652 6.23225 14.6652 8.00002C14.6652 9.76778 13.9631 11.4632 12.7133 12.7133M3.28666 12.7133C2.03685 11.4632 1.33475 9.76778 1.33475 8.00002C1.33475 6.23225 2.03685 4.53687 3.28666 3.28668M9.33332 8.00002C9.33332 8.7364 8.73637 9.33335 7.99999 9.33335C7.26361 9.33335 6.66666 8.7364 6.66666 8.00002C6.66666 7.26364 7.26361 6.66668 7.99999 6.66668C8.73637 6.66668 9.33332 7.26364 9.33332 8.00002Z" stroke="#3271DD" stroke-width="1.6" stroke-linecap="round" stroke-linejoin="round"/>
</svg>
