<svg width="16" height="16" viewBox="0 0 16 16" fill="none" xmlns="http://www.w3.org/2000/svg">
<g clip-path="url(#clip0_13_924)">
<path d="M0.666667 2.66667V6.66667M0.666667 6.66667H4.66667M0.666667 6.66667L3.76 3.76001C4.68061 2.84095 5.87497 2.24599 7.16312 2.06475C8.45127 1.88352 9.76343 2.12583 10.9019 2.75518C12.0404 3.38454 12.9434 4.36684 13.4751 5.55407C14.0067 6.74131 14.1381 8.06917 13.8495 9.33758C13.5608 10.606 12.8678 11.7462 11.8748 12.5865C10.8817 13.4268 9.6425 13.9216 8.34381 13.9963C7.04512 14.0711 5.75732 13.7217 4.67444 13.0009C3.59156 12.2801 2.77226 11.2269 2.34 10" stroke="#3271DD" stroke-width="1.6" stroke-linecap="round" stroke-linejoin="round"/>
</g>
<defs>
<clipPath id="clip0_13_924">
<rect width="16" height="16" fill="white"/>
</clipPath>
</defs>
</svg>
