<svg width="16" height="16" viewBox="0 0 16 16" fill="none" xmlns="http://www.w3.org/2000/svg">
<g clip-path="url(#clip0_13_1007)">
<path d="M15.3333 2.66666V6.66666M15.3333 6.66666H11.3333M15.3333 6.66666L12.2467 3.75999C11.3271 2.83981 10.1333 2.24345 8.84531 2.06075C7.55729 1.87806 6.24478 2.11893 5.10557 2.74708C3.96636 3.37523 3.06217 4.35662 2.52924 5.54337C1.99632 6.73011 1.86354 8.05792 2.15091 9.32669C2.43828 10.5955 3.13024 11.7365 4.1225 12.5778C5.11477 13.4191 6.35359 13.9151 7.65228 13.991C8.95097 14.067 10.2392 13.7188 11.3228 12.999C12.4064 12.2791 13.2266 11.2266 13.66 9.99999" stroke="#3271DD" stroke-width="1.6" stroke-linecap="round" stroke-linejoin="round"/>
</g>
<defs>
<clipPath id="clip0_13_1007">
<rect width="16" height="16" fill="white"/>
</clipPath>
</defs>
</svg>
