<svg width="16" height="16" viewBox="0 0 16 16" fill="none" xmlns="http://www.w3.org/2000/svg">
<g clip-path="url(#clip0_13_1005)">
<path d="M8 9.99996C9.10457 9.99996 10 9.10453 10 7.99996C10 6.89539 9.10457 5.99996 8 5.99996C6.89544 5.99996 6.00001 6.89539 6.00001 7.99996C6.00001 9.10453 6.89544 9.99996 8 9.99996Z" stroke="#3271DD" stroke-width="1.6" stroke-linecap="round" stroke-linejoin="round"/>
<path d="M12.9333 9.99996C12.8446 10.201 12.8181 10.4241 12.8573 10.6404C12.8965 10.8566 12.9996 11.0562 13.1533 11.2133L13.1933 11.2533C13.3173 11.3771 13.4157 11.5242 13.4828 11.686C13.5498 11.8479 13.5844 12.0214 13.5844 12.1966C13.5844 12.3718 13.5498 12.5453 13.4828 12.7072C13.4157 12.8691 13.3173 13.0161 13.1933 13.14C13.0695 13.2639 12.9225 13.3623 12.7606 13.4294C12.5987 13.4965 12.4252 13.531 12.25 13.531C12.0748 13.531 11.9013 13.4965 11.7394 13.4294C11.5776 13.3623 11.4305 13.2639 11.3067 13.14L11.2667 13.1C11.1096 12.9463 10.91 12.8432 10.6937 12.804C10.4775 12.7647 10.2544 12.7912 10.0533 12.88C9.85616 12.9645 9.68799 13.1048 9.56954 13.2836C9.45109 13.4625 9.38753 13.6721 9.38667 13.8866V14C9.38667 14.3536 9.24619 14.6927 8.99615 14.9428C8.7461 15.1928 8.40696 15.3333 8.05334 15.3333C7.69972 15.3333 7.36058 15.1928 7.11053 14.9428C6.86048 14.6927 6.72 14.3536 6.72 14V13.94C6.71484 13.7193 6.64342 13.5053 6.51501 13.3258C6.38661 13.1462 6.20716 13.0095 6 12.9333C5.79893 12.8445 5.57588 12.8181 5.35961 12.8573C5.14335 12.8965 4.94379 12.9996 4.78667 13.1533L4.74667 13.1933C4.62284 13.3173 4.47579 13.4156 4.31393 13.4827C4.15206 13.5498 3.97856 13.5843 3.80334 13.5843C3.62812 13.5843 3.45462 13.5498 3.29275 13.4827C3.13089 13.4156 2.98384 13.3173 2.86 13.1933C2.73604 13.0695 2.63769 12.9224 2.57059 12.7605C2.50349 12.5987 2.46896 12.4252 2.46896 12.25C2.46896 12.0747 2.50349 11.9012 2.57059 11.7394C2.63769 11.5775 2.73604 11.4305 2.86 11.3066L2.9 11.2666C3.0537 11.1095 3.1568 10.9099 3.19601 10.6937C3.23522 10.4774 3.20875 10.2544 3.12 10.0533C3.0355 9.85611 2.89518 9.68795 2.71632 9.5695C2.53746 9.45105 2.32786 9.38748 2.11334 9.38663H2C1.64638 9.38663 1.30724 9.24615 1.0572 8.9961C0.807148 8.74605 0.666672 8.40691 0.666672 8.05329C0.666672 7.69967 0.807148 7.36053 1.0572 7.11048C1.30724 6.86044 1.64638 6.71996 2 6.71996H2.06C2.28067 6.7148 2.49467 6.64337 2.6742 6.51497C2.85373 6.38656 2.99048 6.20712 3.06667 5.99996C3.15541 5.79888 3.18189 5.57583 3.14267 5.35957C3.10346 5.1433 3.00036 4.94374 2.84667 4.78663L2.80667 4.74663C2.6827 4.62279 2.58436 4.47574 2.51726 4.31388C2.45016 4.15202 2.41562 3.97851 2.41562 3.80329C2.41562 3.62807 2.45016 3.45457 2.51726 3.29271C2.58436 3.13084 2.6827 2.98379 2.80667 2.85996C2.9305 2.73599 3.07755 2.63765 3.23942 2.57055C3.40128 2.50345 3.57478 2.46891 3.75 2.46891C3.92523 2.46891 4.09873 2.50345 4.26059 2.57055C4.42246 2.63765 4.56951 2.73599 4.69334 2.85996L4.73334 2.89996C4.89046 3.05365 5.09002 3.15675 5.30628 3.19596C5.52254 3.23517 5.74559 3.2087 5.94667 3.11996H6C6.19718 3.03545 6.36535 2.89513 6.4838 2.71627C6.60225 2.53741 6.66582 2.32782 6.66667 2.11329V1.99996C6.66667 1.64634 6.80715 1.3072 7.0572 1.05715C7.30724 0.807102 7.64638 0.666626 8 0.666626C8.35363 0.666626 8.69276 0.807102 8.94281 1.05715C9.19286 1.3072 9.33334 1.64634 9.33334 1.99996V2.05996C9.33419 2.27448 9.39776 2.48408 9.51621 2.66294C9.63466 2.8418 9.80283 2.98212 10 3.06663C10.2011 3.15537 10.4241 3.18184 10.6404 3.14263C10.8567 3.10342 11.0562 3.00032 11.2133 2.84663L11.2533 2.80663C11.3772 2.68266 11.5242 2.58431 11.6861 2.51721C11.8479 2.45011 12.0215 2.41558 12.1967 2.41558C12.3719 2.41558 12.5454 2.45011 12.7073 2.51721C12.8691 2.58431 13.0162 2.68266 13.14 2.80663C13.264 2.93046 13.3623 3.07751 13.4294 3.23937C13.4965 3.40124 13.5311 3.57474 13.5311 3.74996C13.5311 3.92518 13.4965 4.09868 13.4294 4.26055C13.3623 4.42241 13.264 4.56946 13.14 4.69329L13.1 4.73329C12.9463 4.89041 12.8432 5.08997 12.804 5.30623C12.7648 5.5225 12.7913 5.74555 12.88 5.94663V5.99996C12.9645 6.19714 13.1048 6.3653 13.2837 6.48375C13.4626 6.6022 13.6721 6.66577 13.8867 6.66663H14C14.3536 6.66663 14.6928 6.8071 14.9428 7.05715C15.1929 7.3072 15.3333 7.64634 15.3333 7.99996C15.3333 8.35358 15.1929 8.69272 14.9428 8.94277C14.6928 9.19282 14.3536 9.33329 14 9.33329H13.94C13.7255 9.33415 13.5159 9.39771 13.337 9.51616C13.1582 9.63461 13.0178 9.80278 12.9333 9.99996Z" stroke="#3271DD" stroke-width="1.6" stroke-linecap="round" stroke-linejoin="round"/>
</g>
<defs>
<clipPath id="clip0_13_1005">
<rect width="16" height="16" fill="white"/>
</clipPath>
</defs>
</svg>
