<svg width="16" height="16" viewBox="0 0 16 16" fill="none" xmlns="http://www.w3.org/2000/svg">
<g clip-path="url(#clip0_13_908)">
<path d="M9.66667 6.66671C9.11334 6.66671 8.66667 6.22004 8.66667 5.66671V2.33337C8.66667 1.78004 9.11334 1.33337 9.66667 1.33337C10.22 1.33337 10.6667 1.78004 10.6667 2.33337V5.66671C10.6667 6.22004 10.22 6.66671 9.66667 6.66671Z" stroke="#3271DD" stroke-width="1.6" stroke-linecap="round" stroke-linejoin="round"/>
<path d="M13.6667 6.66671H12.6667V5.66671C12.6667 5.11337 13.1133 4.66671 13.6667 4.66671C14.22 4.66671 14.6667 5.11337 14.6667 5.66671C14.6667 6.22004 14.22 6.66671 13.6667 6.66671Z" stroke="#3271DD" stroke-width="1.6" stroke-linecap="round" stroke-linejoin="round"/>
<path d="M6.33334 9.33337C6.88667 9.33337 7.33334 9.78004 7.33334 10.3334V13.6667C7.33334 14.22 6.88667 14.6667 6.33334 14.6667C5.78 14.6667 5.33334 14.22 5.33334 13.6667V10.3334C5.33334 9.78004 5.78 9.33337 6.33334 9.33337Z" stroke="#3271DD" stroke-width="1.6" stroke-linecap="round" stroke-linejoin="round"/>
<path d="M2.33334 9.33337H3.33334V10.3334C3.33334 10.8867 2.88667 11.3334 2.33334 11.3334C1.78 11.3334 1.33334 10.8867 1.33334 10.3334C1.33334 9.78004 1.78 9.33337 2.33334 9.33337Z" stroke="#3271DD" stroke-width="1.6" stroke-linecap="round" stroke-linejoin="round"/>
<path d="M9.33334 9.66671C9.33334 9.11337 9.78 8.66671 10.3333 8.66671H13.6667C14.22 8.66671 14.6667 9.11337 14.6667 9.66671C14.6667 10.22 14.22 10.6667 13.6667 10.6667H10.3333C9.78 10.6667 9.33334 10.22 9.33334 9.66671Z" stroke="#3271DD" stroke-width="1.6" stroke-linecap="round" stroke-linejoin="round"/>
<path d="M10.3333 12.6667H9.33334V13.6667C9.33334 14.22 9.78 14.6667 10.3333 14.6667C10.8867 14.6667 11.3333 14.22 11.3333 13.6667C11.3333 13.1134 10.8867 12.6667 10.3333 12.6667Z" stroke="#3271DD" stroke-width="1.6" stroke-linecap="round" stroke-linejoin="round"/>
<path d="M6.66667 6.33337C6.66667 5.78004 6.22 5.33337 5.66667 5.33337H2.33334C1.78 5.33337 1.33334 5.78004 1.33334 6.33337C1.33334 6.88671 1.78 7.33337 2.33334 7.33337H5.66667C6.22 7.33337 6.66667 6.88671 6.66667 6.33337Z" stroke="#3271DD" stroke-width="1.6" stroke-linecap="round" stroke-linejoin="round"/>
<path d="M5.66667 3.33337H6.66667V2.33337C6.66667 1.78004 6.22 1.33337 5.66667 1.33337C5.11334 1.33337 4.66667 1.78004 4.66667 2.33337C4.66667 2.88671 5.11334 3.33337 5.66667 3.33337Z" stroke="#3271DD" stroke-width="1.6" stroke-linecap="round" stroke-linejoin="round"/>
</g>
<defs>
<clipPath id="clip0_13_908">
<rect width="16" height="16" fill="white"/>
</clipPath>
</defs>
</svg>
