<svg width="16" height="16" viewBox="0 0 16 16" fill="none" xmlns="http://www.w3.org/2000/svg">
<path d="M7.99999 4.00004H8.00666M3.99999 1.33337H12C12.7364 1.33337 13.3333 1.93033 13.3333 2.66671V13.3334C13.3333 14.0698 12.7364 14.6667 12 14.6667H3.99999C3.26361 14.6667 2.66666 14.0698 2.66666 13.3334V2.66671C2.66666 1.93033 3.26361 1.33337 3.99999 1.33337ZM10.6667 9.33337C10.6667 10.8061 9.47275 12 7.99999 12C6.52723 12 5.33332 10.8061 5.33332 9.33337C5.33332 7.86061 6.52723 6.66671 7.99999 6.66671C9.47275 6.66671 10.6667 7.86061 10.6667 9.33337Z" stroke="#3271DD" stroke-width="1.6" stroke-linecap="round" stroke-linejoin="round"/>
</svg>
