<svg width="16" height="16" viewBox="0 0 16 16" fill="none" xmlns="http://www.w3.org/2000/svg">
<g clip-path="url(#clip0_13_1084)">
<path d="M8.00001 14.6667C11.6819 14.6667 14.6667 11.6819 14.6667 8.00004C14.6667 4.31814 11.6819 1.33337 8.00001 1.33337C4.31811 1.33337 1.33334 4.31814 1.33334 8.00004C1.33334 11.6819 4.31811 14.6667 8.00001 14.6667Z" stroke="#3271DD" stroke-width="1.6" stroke-linecap="round" stroke-linejoin="round"/>
<path d="M8.00001 12C10.2091 12 12 10.2092 12 8.00004C12 5.7909 10.2091 4.00004 8.00001 4.00004C5.79087 4.00004 4.00001 5.7909 4.00001 8.00004C4.00001 10.2092 5.79087 12 8.00001 12Z" stroke="#3271DD" stroke-width="1.6" stroke-linecap="round" stroke-linejoin="round"/>
<path d="M8.00001 9.33337C8.73639 9.33337 9.33334 8.73642 9.33334 8.00004C9.33334 7.26366 8.73639 6.66671 8.00001 6.66671C7.26363 6.66671 6.66668 7.26366 6.66668 8.00004C6.66668 8.73642 7.26363 9.33337 8.00001 9.33337Z" stroke="#3271DD" stroke-width="1.6" stroke-linecap="round" stroke-linejoin="round"/>
</g>
<defs>
<clipPath id="clip0_13_1084">
<rect width="16" height="16" fill="white"/>
</clipPath>
</defs>
</svg>
