<svg width="16" height="16" viewBox="0 0 16 16" fill="none" xmlns="http://www.w3.org/2000/svg">
<g clip-path="url(#clip0_13_902)">
<path d="M9.33335 9.83996V2.33329C9.33335 1.89127 9.15776 1.46734 8.8452 1.15478C8.53264 0.842221 8.10871 0.666626 7.66669 0.666626C7.22466 0.666626 6.80074 0.842221 6.48818 1.15478C6.17561 1.46734 6.00002 1.89127 6.00002 2.33329V9.83996C5.46487 10.1975 5.0589 10.7177 4.84207 11.3237C4.62523 11.9297 4.60903 12.5893 4.79586 13.2052C4.98268 13.8211 5.36263 14.3606 5.87958 14.744C6.39653 15.1274 7.02308 15.3344 7.66669 15.3344C8.3103 15.3344 8.93685 15.1274 9.4538 14.744C9.97075 14.3606 10.3507 13.8211 10.5375 13.2052C10.7243 12.5893 10.7081 11.9297 10.4913 11.3237C10.2745 10.7177 9.8685 10.1975 9.33335 9.83996Z" stroke="#3271DD" stroke-width="1.6" stroke-linecap="round" stroke-linejoin="round"/>
</g>
<defs>
<clipPath id="clip0_13_902">
<rect width="16" height="16" fill="white"/>
</clipPath>
</defs>
</svg>
