<svg width="16" height="16" viewBox="0 0 16 16" fill="none" xmlns="http://www.w3.org/2000/svg">
<g clip-path="url(#clip0_13_1155)">
<path d="M4.66666 7.33337L7.33333 1.33337C7.86376 1.33337 8.37247 1.54409 8.74754 1.91916C9.12261 2.29423 9.33333 2.80294 9.33333 3.33337V6.00004H13.1067C13.2999 5.99785 13.4914 6.03771 13.6677 6.11685C13.844 6.19599 14.0011 6.31253 14.1279 6.45838C14.2547 6.60424 14.3483 6.77592 14.4022 6.96154C14.4561 7.14716 14.469 7.34228 14.44 7.53337L13.52 13.5334C13.4718 13.8513 13.3103 14.1411 13.0653 14.3494C12.8202 14.5576 12.5082 14.6703 12.1867 14.6667H4.66666M4.66666 7.33337V14.6667M4.66666 7.33337H2.66666C2.31304 7.33337 1.9739 7.47385 1.72385 7.7239C1.4738 7.97395 1.33333 8.31308 1.33333 8.66671V13.3334C1.33333 13.687 1.4738 14.0261 1.72385 14.2762C1.9739 14.5262 2.31304 14.6667 2.66666 14.6667H4.66666" stroke="#3271DD" stroke-width="1.6" stroke-linecap="round" stroke-linejoin="round"/>
</g>
<defs>
<clipPath id="clip0_13_1155">
<rect width="16" height="16" fill="white"/>
</clipPath>
</defs>
</svg>
