<svg width="16" height="16" viewBox="0 0 16 16" fill="none" xmlns="http://www.w3.org/2000/svg">
<g clip-path="url(#clip0_13_1123)">
<path d="M11.3333 8.6667L8.66666 14.6667C8.13622 14.6667 7.62752 14.456 7.25244 14.0809C6.87737 13.7058 6.66666 13.1971 6.66666 12.6667V10H2.89332C2.70005 10.0022 2.50861 9.96237 2.33228 9.88323C2.15594 9.80408 1.99891 9.68755 1.87208 9.54169C1.74525 9.39584 1.65165 9.22416 1.59776 9.03854C1.54387 8.85292 1.53098 8.6578 1.55999 8.4667L2.47999 2.4667C2.52821 2.14877 2.6897 1.85897 2.93472 1.6507C3.17974 1.44243 3.49177 1.32974 3.81332 1.33337H11.3333M11.3333 8.6667V1.33337M11.3333 8.6667H13.1133C13.4906 8.67338 13.8573 8.54128 14.1436 8.29549C14.4299 8.0497 14.6161 7.70733 14.6667 7.33337V2.6667C14.6161 2.29274 14.4299 1.95037 14.1436 1.70458C13.8573 1.45879 13.4906 1.3267 13.1133 1.33337H11.3333" stroke="#3271DD" stroke-width="1.6" stroke-linecap="round" stroke-linejoin="round"/>
</g>
<defs>
<clipPath id="clip0_13_1123">
<rect width="16" height="16" fill="white"/>
</clipPath>
</defs>
</svg>
