<svg width="16" height="16" viewBox="0 0 16 16" fill="none" xmlns="http://www.w3.org/2000/svg">
<path d="M9.8 4.20003C9.67785 4.32465 9.60943 4.49219 9.60943 4.66669C9.60943 4.8412 9.67785 5.00874 9.8 5.13336L10.8667 6.20003C10.9913 6.32218 11.1588 6.3906 11.3333 6.3906C11.5078 6.3906 11.6754 6.32218 11.8 6.20003L14.3133 3.68669C14.6486 4.42749 14.7501 5.25285 14.6043 6.05279C14.4586 6.85273 14.0725 7.58926 13.4975 8.16421C12.9226 8.73917 12.186 9.12525 11.3861 9.271C10.5862 9.41675 9.7608 9.31525 9.02 8.98003L4.41334 13.5867C4.14812 13.8519 3.78841 14.0009 3.41334 14.0009C3.03826 14.0009 2.67855 13.8519 2.41334 13.5867C2.14812 13.3215 1.99912 12.9618 1.99912 12.5867C1.99912 12.2116 2.14812 11.8519 2.41334 11.5867L7.02 6.98003C6.68478 6.23923 6.58328 5.41387 6.72903 4.61393C6.87478 3.81399 7.26086 3.07746 7.83582 2.50251C8.41077 1.92755 9.1473 1.54147 9.94724 1.39572C10.7472 1.24997 11.5725 1.35147 12.3133 1.68669L9.8 4.20003Z" stroke="#3271DD" stroke-width="1.6" stroke-linecap="round" stroke-linejoin="round"/>
</svg>
