<svg width="16" height="16" viewBox="0 0 16 16" fill="none" xmlns="http://www.w3.org/2000/svg">
<g clip-path="url(#clip0_13_923)">
<path d="M10.6667 10.6667V2H0.666672V10.6667H10.6667ZM10.6667 10.6667H15.3333V7.33333L13.3333 5.33333H10.6667L10.6667 10.6667ZM5.33334 12.3333C5.33334 13.2538 4.58715 14 3.66667 14C2.7462 14 2.00001 13.2538 2.00001 12.3333C2.00001 11.4129 2.7462 10.6667 3.66667 10.6667C4.58715 10.6667 5.33334 11.4129 5.33334 12.3333ZM14 12.3333C14 13.2538 13.2538 14 12.3333 14C11.4129 14 10.6667 13.2538 10.6667 12.3333C10.6667 11.4129 11.4129 10.6667 12.3333 10.6667C13.2538 10.6667 14 11.4129 14 12.3333Z" stroke="#3271DD" stroke-width="1.6" stroke-linecap="round" stroke-linejoin="round"/>
</g>
<defs>
<clipPath id="clip0_13_923">
<rect width="16" height="16" fill="white"/>
</clipPath>
</defs>
</svg>
