<svg width="16" height="16" viewBox="0 0 16 16" fill="none" xmlns="http://www.w3.org/2000/svg">
<g clip-path="url(#clip0_13_1133)">
<path d="M15.3333 1.99999C14.6949 2.45031 13.9881 2.79473 13.24 3.01999C12.8385 2.55833 12.3049 2.23112 11.7114 2.08261C11.1178 1.9341 10.493 1.97145 9.92138 2.18963C9.34977 2.4078 8.85896 2.79626 8.51532 3.30247C8.17168 3.80868 7.9918 4.40821 8 5.01999V5.68666C6.82842 5.71703 5.66751 5.4572 4.62067 4.93029C3.57383 4.40338 2.67354 3.62575 2 2.66666C2 2.66666 -0.666669 8.66666 5.33333 11.3333C3.96035 12.2653 2.32477 12.7326 0.666664 12.6667C6.66666 16 14 12.6667 14 4.99999C13.9994 4.81429 13.9815 4.62905 13.9467 4.44666C14.6271 3.77565 15.1072 2.92847 15.3333 1.99999Z" stroke="#3271DD" stroke-width="1.6" stroke-linecap="round" stroke-linejoin="round"/>
</g>
<defs>
<clipPath id="clip0_13_1133">
<rect width="16" height="16" fill="white"/>
</clipPath>
</defs>
</svg>
