<svg width="119" height="48" viewBox="0 0 119 48" fill="none" xmlns="http://www.w3.org/2000/svg">
<path d="M0 24C0 10.7452 10.7452 0 24 0H95C108.255 0 119 10.7452 119 24C119 37.2548 108.255 48 95 48H24C10.7452 48 0 37.2548 0 24Z" fill="#E6EFFF"/>
<path fill-rule="evenodd" clip-rule="evenodd" d="M22.6 19C22.6 18.7791 22.7791 18.6 23 18.6H25.5C25.8314 18.6 26.1 18.3314 26.1 18C26.1 17.6686 25.8314 17.4 25.5 17.4H23C22.1163 17.4 21.4 18.1163 21.4 19V21.5C21.4 21.8314 21.6686 22.1 22 22.1C22.3314 22.1 22.6 21.8314 22.6 21.5V19ZM30.5 17.4C30.1686 17.4 29.9 17.6686 29.9 18C29.9 18.3314 30.1686 18.6 30.5 18.6H33C33.2209 18.6 33.4 18.7791 33.4 19V21.5C33.4 21.8314 33.6686 22.1 34 22.1C34.3314 22.1 34.6 21.8314 34.6 21.5V19C34.6 18.1163 33.8837 17.4 33 17.4H30.5ZM22.6 26.5C22.6 26.1686 22.3314 25.9 22 25.9C21.6686 25.9 21.4 26.1686 21.4 26.5V29C21.4 29.8836 22.1163 30.6 23 30.6H25.5C25.8314 30.6 26.1 30.3314 26.1 30C26.1 29.6686 25.8314 29.4 25.5 29.4H23C22.7791 29.4 22.6 29.2209 22.6 29V26.5ZM34.6 26.5C34.6 26.1686 34.3314 25.9 34 25.9C33.6686 25.9 33.4 26.1686 33.4 26.5V29C33.4 29.2209 33.2209 29.4 33 29.4H30.5C30.1686 29.4 29.9 29.6686 29.9 30C29.9 30.3314 30.1686 30.6 30.5 30.6H33C33.8837 30.6 34.6 29.8837 34.6 29V26.5ZM25.4243 20.5757C25.19 20.3414 24.8101 20.3414 24.5757 20.5757C24.3414 20.81 24.3414 21.1899 24.5757 21.4243L26.0757 22.9243C26.3101 23.1586 26.69 23.1586 26.9243 22.9243C27.1586 22.6899 27.1586 22.31 26.9243 22.0757L25.4243 20.5757ZM29.9243 25.0757C29.69 24.8414 29.3101 24.8414 29.0757 25.0757C28.8414 25.31 28.8414 25.6899 29.0757 25.9243L30.5757 27.4243C30.8101 27.6586 31.19 27.6586 31.4243 27.4243C31.6586 27.1899 31.6586 26.81 31.4243 26.5757L29.9243 25.0757Z" fill="#0064FF"/>
<path d="M45.4091 30V18.3636H49.4773C50.2879 18.3636 50.9564 18.5038 51.483 18.7841C52.0095 19.0606 52.4015 19.4337 52.6591 19.9034C52.9167 20.3693 53.0455 20.8864 53.0455 21.4545C53.0455 21.9545 52.9564 22.3674 52.7784 22.6932C52.6042 23.0189 52.3731 23.2765 52.0852 23.4659C51.8011 23.6553 51.4924 23.7955 51.1591 23.8864V24C51.5152 24.0227 51.8731 24.1477 52.233 24.375C52.5928 24.6023 52.8939 24.928 53.1364 25.3523C53.3788 25.7765 53.5 26.2955 53.5 26.9091C53.5 27.4924 53.3674 28.017 53.1023 28.483C52.8371 28.9489 52.4186 29.3182 51.8466 29.5909C51.2746 29.8636 50.5303 30 49.6136 30H45.4091ZM46.8182 28.75H49.6136C50.5341 28.75 51.1875 28.572 51.5739 28.2159C51.964 27.8561 52.1591 27.4205 52.1591 26.9091C52.1591 26.5152 52.0587 26.1515 51.858 25.8182C51.6572 25.4811 51.3712 25.2121 51 25.0114C50.6288 24.8068 50.1894 24.7045 49.6818 24.7045H46.8182V28.75ZM46.8182 23.4773H49.4318C49.8561 23.4773 50.2386 23.3939 50.5795 23.2273C50.9242 23.0606 51.197 22.8258 51.3977 22.5227C51.6023 22.2197 51.7045 21.8636 51.7045 21.4545C51.7045 20.9432 51.5265 20.5095 51.1705 20.1534C50.8144 19.7936 50.25 19.6136 49.4773 19.6136H46.8182V23.4773ZM61.1335 26.4318V21.2727H62.4744V30H61.1335V28.5227H61.0426C60.8381 28.9659 60.5199 29.3428 60.0881 29.6534C59.6563 29.9602 59.1108 30.1136 58.4517 30.1136C57.9062 30.1136 57.4214 29.9943 56.9972 29.7557C56.5729 29.5133 56.2396 29.1496 55.9972 28.6648C55.7547 28.1761 55.6335 27.5606 55.6335 26.8182V21.2727H56.9744V26.7273C56.9744 27.3636 57.1525 27.8712 57.5085 28.25C57.8684 28.6288 58.3267 28.8182 58.8835 28.8182C59.2169 28.8182 59.5559 28.733 59.9006 28.5625C60.2491 28.392 60.5407 28.1307 60.7756 27.7784C61.0142 27.4261 61.1335 26.9773 61.1335 26.4318ZM68.7259 21.2727V22.4091H64.2031V21.2727H68.7259ZM65.5213 19.1818H66.8622V27.5C66.8622 27.8788 66.9171 28.1629 67.027 28.3523C67.1406 28.5379 67.2846 28.6629 67.4588 28.7273C67.6368 28.7879 67.8243 28.8182 68.0213 28.8182C68.169 28.8182 68.2902 28.8106 68.3849 28.7955C68.4796 28.7765 68.5554 28.7614 68.6122 28.75L68.8849 29.9545C68.794 29.9886 68.6671 30.0227 68.5043 30.0568C68.3414 30.0947 68.1349 30.1136 67.8849 30.1136C67.5062 30.1136 67.1349 30.0322 66.7713 29.8693C66.4115 29.7064 66.1122 29.4583 65.8736 29.125C65.6387 28.7917 65.5213 28.3712 65.5213 27.8636V19.1818ZM74.5384 21.2727V22.4091H70.0156V21.2727H74.5384ZM71.3338 19.1818H72.6747V27.5C72.6747 27.8788 72.7296 28.1629 72.8395 28.3523C72.9531 28.5379 73.0971 28.6629 73.2713 28.7273C73.4493 28.7879 73.6368 28.8182 73.8338 28.8182C73.9815 28.8182 74.1027 28.8106 74.1974 28.7955C74.2921 28.7765 74.3679 28.7614 74.4247 28.75L74.6974 29.9545C74.6065 29.9886 74.4796 30.0227 74.3168 30.0568C74.1539 30.0947 73.9474 30.1136 73.6974 30.1136C73.3187 30.1136 72.9474 30.0322 72.5838 29.8693C72.224 29.7064 71.9247 29.4583 71.6861 29.125C71.4512 28.7917 71.3338 28.3712 71.3338 27.8636V19.1818ZM80.0071 30.1818C79.2192 30.1818 78.5279 29.9943 77.9332 29.6193C77.3423 29.2443 76.8802 28.7197 76.5469 28.0455C76.2173 27.3712 76.0526 26.5833 76.0526 25.6818C76.0526 24.7727 76.2173 23.9792 76.5469 23.3011C76.8802 22.6231 77.3423 22.0966 77.9332 21.7216C78.5279 21.3466 79.2192 21.1591 80.0071 21.1591C80.795 21.1591 81.4844 21.3466 82.0753 21.7216C82.67 22.0966 83.1321 22.6231 83.4616 23.3011C83.795 23.9792 83.9616 24.7727 83.9616 25.6818C83.9616 26.5833 83.795 27.3712 83.4616 28.0455C83.1321 28.7197 82.67 29.2443 82.0753 29.6193C81.4844 29.9943 80.795 30.1818 80.0071 30.1818ZM80.0071 28.9773C80.6056 28.9773 81.098 28.8239 81.4844 28.517C81.8707 28.2102 82.1567 27.8068 82.3423 27.3068C82.5279 26.8068 82.6207 26.2652 82.6207 25.6818C82.6207 25.0985 82.5279 24.5549 82.3423 24.0511C82.1567 23.5473 81.8707 23.1402 81.4844 22.8295C81.098 22.5189 80.6056 22.3636 80.0071 22.3636C79.4086 22.3636 78.9162 22.5189 78.5298 22.8295C78.1435 23.1402 77.8575 23.5473 77.6719 24.0511C77.4863 24.5549 77.3935 25.0985 77.3935 25.6818C77.3935 26.2652 77.4863 26.8068 77.6719 27.3068C77.8575 27.8068 78.1435 28.2102 78.5298 28.517C78.9162 28.8239 79.4086 28.9773 80.0071 28.9773ZM87.3494 24.75V30H86.0085V21.2727H87.304V22.6364H87.4176C87.6222 22.1932 87.9328 21.8371 88.3494 21.5682C88.7661 21.2955 89.304 21.1591 89.9631 21.1591C90.554 21.1591 91.071 21.2803 91.5142 21.5227C91.9574 21.7614 92.3021 22.125 92.5483 22.6136C92.7945 23.0985 92.9176 23.7121 92.9176 24.4545V30H91.5767V24.5455C91.5767 23.8598 91.3987 23.3258 91.0426 22.9432C90.6866 22.5568 90.1979 22.3636 89.5767 22.3636C89.1487 22.3636 88.7661 22.4564 88.429 22.642C88.0956 22.8277 87.8324 23.0985 87.6392 23.4545C87.446 23.8106 87.3494 24.2424 87.3494 24.75Z" fill="#0064FF"/>
</svg>
