<svg width="48" height="48" viewBox="0 0 48 48" fill="none" xmlns="http://www.w3.org/2000/svg">
<path d="M24 0.5C36.9787 0.5 47.5 11.0213 47.5 24C47.5 36.9787 36.9787 47.5 24 47.5C11.0213 47.5 0.5 36.9787 0.5 24C0.5 11.0213 11.0213 0.5 24 0.5Z" stroke="#BFD8FF"/>
<path fill-rule="evenodd" clip-rule="evenodd" d="M18.6 19C18.6 18.7791 18.7791 18.6 19 18.6H21.5C21.8314 18.6 22.1 18.3314 22.1 18C22.1 17.6686 21.8314 17.4 21.5 17.4H19C18.1163 17.4 17.4 18.1163 17.4 19V21.5C17.4 21.8314 17.6686 22.1 18 22.1C18.3314 22.1 18.6 21.8314 18.6 21.5V19ZM26.5 17.4C26.1686 17.4 25.9 17.6686 25.9 18C25.9 18.3314 26.1686 18.6 26.5 18.6H29C29.2209 18.6 29.4 18.7791 29.4 19V21.5C29.4 21.8314 29.6686 22.1 30 22.1C30.3314 22.1 30.6 21.8314 30.6 21.5V19C30.6 18.1163 29.8837 17.4 29 17.4H26.5ZM18.6 26.5C18.6 26.1686 18.3314 25.9 18 25.9C17.6686 25.9 17.4 26.1686 17.4 26.5V29C17.4 29.8837 18.1163 30.6 19 30.6H21.5C21.8314 30.6 22.1 30.3314 22.1 30C22.1 29.6686 21.8314 29.4 21.5 29.4H19C18.7791 29.4 18.6 29.2209 18.6 29V26.5ZM30.6 26.5C30.6 26.1686 30.3314 25.9 30 25.9C29.6686 25.9 29.4 26.1686 29.4 26.5V29C29.4 29.2209 29.2209 29.4 29 29.4H26.5C26.1686 29.4 25.9 29.6686 25.9 30C25.9 30.3314 26.1686 30.6 26.5 30.6H29C29.8836 30.6 30.6 29.8837 30.6 29V26.5ZM21.4243 20.5757C21.1899 20.3414 20.81 20.3414 20.5757 20.5757C20.3414 20.8101 20.3414 21.19 20.5757 21.4243L22.0757 22.9243C22.31 23.1586 22.6899 23.1586 22.9243 22.9243C23.1586 22.69 23.1586 22.3101 22.9243 22.0757L21.4243 20.5757ZM25.9243 25.0757C25.6899 24.8414 25.31 24.8414 25.0757 25.0757C24.8414 25.3101 24.8414 25.69 25.0757 25.9243L26.5757 27.4243C26.81 27.6586 27.1899 27.6586 27.4243 27.4243C27.6586 27.19 27.6586 26.8101 27.4243 26.5757L25.9243 25.0757Z" fill="#0064FF"/>
</svg>
