<svg width="99" height="48" viewBox="0 0 99 48" fill="none" xmlns="http://www.w3.org/2000/svg">
<path d="M24 0.5H75C87.9787 0.5 98.5 11.0213 98.5 24C98.5 36.9787 87.9787 47.5 75 47.5H24C11.0213 47.5 0.5 36.9787 0.5 24C0.5 11.0213 11.0213 0.5 24 0.5Z" stroke="#D1D5DB"/>
<path d="M25.8388 30V18.3636H29.907C30.7176 18.3636 31.3861 18.5038 31.9126 18.7841C32.4392 19.0606 32.8312 19.4337 33.0888 19.9034C33.3464 20.3693 33.4751 20.8864 33.4751 21.4545C33.4751 21.9545 33.3861 22.3674 33.2081 22.6932C33.0339 23.0189 32.8028 23.2765 32.5149 23.4659C32.2308 23.6553 31.9221 23.7955 31.5888 23.8864V24C31.9448 24.0227 32.3028 24.1477 32.6626 24.375C33.0225 24.6023 33.3236 24.928 33.5661 25.3523C33.8085 25.7765 33.9297 26.2955 33.9297 26.9091C33.9297 27.4924 33.7971 28.017 33.532 28.483C33.2668 28.9489 32.8482 29.3182 32.2763 29.5909C31.7043 29.8636 30.96 30 30.0433 30H25.8388ZM27.2479 28.75H30.0433C30.9638 28.75 31.6172 28.572 32.0036 28.2159C32.3937 27.8561 32.5888 27.4205 32.5888 26.9091C32.5888 26.5152 32.4884 26.1515 32.2876 25.8182C32.0869 25.4811 31.8009 25.2121 31.4297 25.0114C31.0585 24.8068 30.6191 24.7045 30.1115 24.7045H27.2479V28.75ZM27.2479 23.4773H29.8615C30.2857 23.4773 30.6683 23.3939 31.0092 23.2273C31.3539 23.0606 31.6267 22.8258 31.8274 22.5227C32.032 22.2197 32.1342 21.8636 32.1342 21.4545C32.1342 20.9432 31.9562 20.5095 31.6001 20.1534C31.2441 19.7936 30.6797 19.6136 29.907 19.6136H27.2479V23.4773ZM41.5632 26.4318V21.2727H42.9041V30H41.5632V28.5227H41.4723C41.2678 28.9659 40.9496 29.3428 40.5178 29.6534C40.0859 29.9602 39.5405 30.1136 38.8814 30.1136C38.3359 30.1136 37.8511 29.9943 37.4268 29.7557C37.0026 29.5133 36.6693 29.1496 36.4268 28.6648C36.1844 28.1761 36.0632 27.5606 36.0632 26.8182V21.2727H37.4041V26.7273C37.4041 27.3636 37.5821 27.8712 37.9382 28.25C38.2981 28.6288 38.7564 28.8182 39.3132 28.8182C39.6465 28.8182 39.9856 28.733 40.3303 28.5625C40.6787 28.392 40.9704 28.1307 41.2053 27.7784C41.4439 27.4261 41.5632 26.9773 41.5632 26.4318ZM49.1555 21.2727V22.4091H44.6328V21.2727H49.1555ZM45.951 19.1818H47.2919V27.5C47.2919 27.8788 47.3468 28.1629 47.4567 28.3523C47.5703 28.5379 47.7143 28.6629 47.8885 28.7273C48.0665 28.7879 48.254 28.8182 48.451 28.8182C48.5987 28.8182 48.7199 28.8106 48.8146 28.7955C48.9093 28.7765 48.9851 28.7614 49.0419 28.75L49.3146 29.9545C49.2237 29.9886 49.0968 30.0227 48.9339 30.0568C48.7711 30.0947 48.5646 30.1136 48.3146 30.1136C47.9358 30.1136 47.5646 30.0322 47.201 29.8693C46.8411 29.7064 46.5419 29.4583 46.3033 29.125C46.0684 28.7917 45.951 28.3712 45.951 27.8636V19.1818ZM54.968 21.2727V22.4091H50.4453V21.2727H54.968ZM51.7635 19.1818H53.1044V27.5C53.1044 27.8788 53.1593 28.1629 53.2692 28.3523C53.3828 28.5379 53.5268 28.6629 53.701 28.7273C53.879 28.7879 54.0665 28.8182 54.2635 28.8182C54.4112 28.8182 54.5324 28.8106 54.6271 28.7955C54.7218 28.7765 54.7976 28.7614 54.8544 28.75L55.1271 29.9545C55.0362 29.9886 54.9093 30.0227 54.7464 30.0568C54.5836 30.0947 54.3771 30.1136 54.1271 30.1136C53.7483 30.1136 53.3771 30.0322 53.0135 29.8693C52.6536 29.7064 52.3544 29.4583 52.1158 29.125C51.8809 28.7917 51.7635 28.3712 51.7635 27.8636V19.1818ZM60.4368 30.1818C59.6489 30.1818 58.9576 29.9943 58.3629 29.6193C57.772 29.2443 57.3099 28.7197 56.9766 28.0455C56.647 27.3712 56.4822 26.5833 56.4822 25.6818C56.4822 24.7727 56.647 23.9792 56.9766 23.3011C57.3099 22.6231 57.772 22.0966 58.3629 21.7216C58.9576 21.3466 59.6489 21.1591 60.4368 21.1591C61.2247 21.1591 61.9141 21.3466 62.505 21.7216C63.0997 22.0966 63.5618 22.6231 63.8913 23.3011C64.2247 23.9792 64.3913 24.7727 64.3913 25.6818C64.3913 26.5833 64.2247 27.3712 63.8913 28.0455C63.5618 28.7197 63.0997 29.2443 62.505 29.6193C61.9141 29.9943 61.2247 30.1818 60.4368 30.1818ZM60.4368 28.9773C61.0353 28.9773 61.5277 28.8239 61.9141 28.517C62.3004 28.2102 62.5864 27.8068 62.772 27.3068C62.9576 26.8068 63.0504 26.2652 63.0504 25.6818C63.0504 25.0985 62.9576 24.5549 62.772 24.0511C62.5864 23.5473 62.3004 23.1402 61.9141 22.8295C61.5277 22.5189 61.0353 22.3636 60.4368 22.3636C59.8383 22.3636 59.3459 22.5189 58.9595 22.8295C58.5732 23.1402 58.2872 23.5473 58.1016 24.0511C57.916 24.5549 57.8232 25.0985 57.8232 25.6818C57.8232 26.2652 57.916 26.8068 58.1016 27.3068C58.2872 27.8068 58.5732 28.2102 58.9595 28.517C59.3459 28.8239 59.8383 28.9773 60.4368 28.9773ZM67.7791 24.75V30H66.4382V21.2727H67.7337V22.6364H67.8473C68.0518 22.1932 68.3625 21.8371 68.7791 21.5682C69.1958 21.2955 69.7337 21.1591 70.3928 21.1591C70.9837 21.1591 71.5007 21.2803 71.9439 21.5227C72.3871 21.7614 72.7318 22.125 72.978 22.6136C73.2242 23.0985 73.3473 23.7121 73.3473 24.4545V30H72.0064V24.5455C72.0064 23.8598 71.8284 23.3258 71.4723 22.9432C71.1162 22.5568 70.6276 22.3636 70.0064 22.3636C69.5784 22.3636 69.1958 22.4564 68.8587 22.642C68.5253 22.8277 68.2621 23.0985 68.0689 23.4545C67.8757 23.8106 67.7791 24.2424 67.7791 24.75Z" fill="#374151"/>
</svg>
