<svg width="16" height="16" viewBox="0 0 16 16" fill="none" xmlns="http://www.w3.org/2000/svg">
<g clip-path="url(#clip0_13_1093)">
<path d="M10.6667 14V12.6667C10.6667 11.9594 10.3857 11.2811 9.88562 10.781C9.38553 10.281 8.70725 10 8 10H3.33334C2.62609 10 1.94782 10.281 1.44772 10.781C0.947623 11.2811 0.666672 11.9594 0.666672 12.6667V14M11.3333 7.33333L12.6667 8.66667L15.3333 6M8.33334 4.66667C8.33334 6.13943 7.13943 7.33333 5.66667 7.33333C4.19391 7.33333 3.00001 6.13943 3.00001 4.66667C3.00001 3.19391 4.19391 2 5.66667 2C7.13943 2 8.33334 3.19391 8.33334 4.66667Z" stroke="#3271DD" stroke-width="1.6" stroke-linecap="round" stroke-linejoin="round"/>
</g>
<defs>
<clipPath id="clip0_13_1093">
<rect width="16" height="16" fill="white"/>
</clipPath>
</defs>
</svg>
