<svg width="16" height="16" viewBox="0 0 16 16" fill="none" xmlns="http://www.w3.org/2000/svg">
<g clip-path="url(#clip0_13_1074)">
<path d="M10.6667 14V12.6667C10.6667 11.9594 10.3857 11.2811 9.88562 10.781C9.38552 10.281 8.70724 10 8 10H3.33333C2.62609 10 1.94781 10.281 1.44771 10.781C0.947616 11.2811 0.666664 11.9594 0.666664 12.6667V14M15.3333 7.33333H11.3333M8.33333 4.66667C8.33333 6.13943 7.13942 7.33333 5.66666 7.33333C4.1939 7.33333 3 6.13943 3 4.66667C3 3.19391 4.1939 2 5.66666 2C7.13942 2 8.33333 3.19391 8.33333 4.66667Z" stroke="#3271DD" stroke-width="1.6" stroke-linecap="round" stroke-linejoin="round"/>
</g>
<defs>
<clipPath id="clip0_13_1074">
<rect width="16" height="16" fill="white"/>
</clipPath>
</defs>
</svg>
