<svg width="16" height="16" viewBox="0 0 16 16" fill="none" xmlns="http://www.w3.org/2000/svg">
<g clip-path="url(#clip0_13_1062)">
<path d="M10.6667 10.6666V11.3333C10.6667 11.6869 10.5262 12.0261 10.2761 12.2761C10.0261 12.5261 9.68694 12.6666 9.33332 12.6666H1.99999C1.64637 12.6666 1.30723 12.5261 1.05718 12.2761C0.807132 12.0261 0.666656 11.6869 0.666656 11.3333V4.66663C0.666656 4.313 0.807132 3.97387 1.05718 3.72382C1.30723 3.47377 1.64637 3.33329 1.99999 3.33329H3.33332M7.10666 3.33329H9.33332C9.68694 3.33329 10.0261 3.47377 10.2761 3.72382C10.5262 3.97387 10.6667 4.313 10.6667 4.66663V6.89329L11.3333 7.55996L15.3333 4.66663V11.3333M0.666656 0.666626L15.3333 15.3333" stroke="#3271DD" stroke-width="1.6" stroke-linecap="round" stroke-linejoin="round"/>
</g>
<defs>
<clipPath id="clip0_13_1062">
<rect width="16" height="16" fill="white"/>
</clipPath>
</defs>
</svg>
