<svg width="16" height="16" viewBox="0 0 16 16" fill="none" xmlns="http://www.w3.org/2000/svg">
<g clip-path="url(#clip0_13_990)">
<path d="M8 5.99997V7.99997L9 8.99997M11.0067 11.5666L10.7733 14.12C10.7433 14.4524 10.5897 14.7615 10.3428 14.9861C10.0959 15.2108 9.77378 15.3347 9.44 15.3333H6.55334C6.21955 15.3347 5.89741 15.2108 5.65054 14.9861C5.40367 14.7615 5.25004 14.4524 5.22 14.12L4.98667 11.5666M4.99334 4.4333L5.22667 1.87997C5.25661 1.54869 5.40929 1.24056 5.65475 1.01607C5.9002 0.791584 6.2207 0.66695 6.55334 0.666637H9.45334C9.78712 0.665283 10.1093 0.789169 10.3561 1.01382C10.603 1.23847 10.7566 1.54754 10.7867 1.87997L11.02 4.4333M12.6667 7.99997C12.6667 10.5773 10.5773 12.6666 8 12.6666C5.42267 12.6666 3.33334 10.5773 3.33334 7.99997C3.33334 5.42264 5.42267 3.3333 8 3.3333C10.5773 3.3333 12.6667 5.42264 12.6667 7.99997Z" stroke="#3271DD" stroke-width="1.6" stroke-linecap="round" stroke-linejoin="round"/>
</g>
<defs>
<clipPath id="clip0_13_990">
<rect width="16" height="16" fill="white"/>
</clipPath>
</defs>
</svg>
