<svg width="16" height="16" viewBox="0 0 16 16" fill="none" xmlns="http://www.w3.org/2000/svg">
<g clip-path="url(#clip0_13_1080)">
<path d="M0.666672 0.666626L15.3333 15.3333M11.1467 7.37329C11.6927 7.63979 12.2034 7.97349 12.6667 8.36663M3.33334 8.36663C4.32139 7.54051 5.51059 6.99077 6.78001 6.77329M7.14 3.36663C8.56828 3.25154 10.0051 3.4254 11.3647 3.87784C12.7243 4.33028 13.9788 5.05201 15.0533 5.99996M0.946672 5.99996C1.87145 5.18253 2.9318 4.53278 4.08 4.07996M5.68667 10.74C6.36347 10.2591 7.17312 10.0008 8.00334 10.0008C8.83356 10.0008 9.6432 10.2591 10.32 10.74M8 13.3333H8.00667" stroke="#3271DD" stroke-width="1.6" stroke-linecap="round" stroke-linejoin="round"/>
</g>
<defs>
<clipPath id="clip0_13_1080">
<rect width="16" height="16" fill="white"/>
</clipPath>
</defs>
</svg>
