<svg width="16" height="16" viewBox="0 0 16 16" fill="none" xmlns="http://www.w3.org/2000/svg">
<path d="M6.39334 3.05995C6.54821 2.90416 6.73918 2.78904 6.94926 2.72484C7.15934 2.66064 7.38203 2.64934 7.59753 2.69194C7.81303 2.73454 8.01467 2.82973 8.18451 2.96904C8.35436 3.10836 8.48716 3.28747 8.57109 3.49048C8.65503 3.69348 8.68752 3.91408 8.66565 4.13266C8.64379 4.35124 8.56826 4.56103 8.44578 4.74339C8.3233 4.92574 8.15766 5.07501 7.96358 5.17792C7.76951 5.28084 7.55301 5.3342 7.33334 5.33328H1.33334M8.39334 12.9399C8.54821 13.0957 8.73918 13.2109 8.94926 13.2751C9.15934 13.3393 9.38203 13.3506 9.59753 13.308C9.81303 13.2653 10.0147 13.1702 10.1845 13.0308C10.3544 12.8915 10.4872 12.7124 10.5711 12.5094C10.655 12.3064 10.6875 12.0858 10.6657 11.8672C10.6438 11.6487 10.5683 11.4389 10.4458 11.2565C10.3233 11.0742 10.1577 10.9249 9.96358 10.822C9.76951 10.7191 9.55301 10.6657 9.33334 10.6666H1.33334M11.82 5.15328C12.0139 4.95987 12.2525 4.81722 12.5146 4.73796C12.7768 4.65869 13.0544 4.64524 13.323 4.6988C13.5916 4.75237 13.8428 4.87129 14.0545 5.04506C14.2662 5.21883 14.4318 5.44208 14.5367 5.69507C14.6415 5.94807 14.6824 6.22301 14.6558 6.49558C14.6291 6.76815 14.5357 7.02994 14.3838 7.25781C14.2318 7.48568 14.0261 7.6726 13.7848 7.80205C13.5434 7.93149 13.2739 7.99946 13 7.99995H1.33334" stroke="#3271DD" stroke-width="1.6" stroke-linecap="round" stroke-linejoin="round"/>
</svg>
