<svg width="16" height="16" viewBox="0 0 16 16" fill="none" xmlns="http://www.w3.org/2000/svg">
<g clip-path="url(#clip0_13_885)">
<path d="M15.0267 4.27996C14.9475 3.96357 14.7862 3.67367 14.5591 3.43956C14.332 3.20545 14.0472 3.03542 13.7333 2.94663C12.5867 2.66663 8 2.66663 8 2.66663C8 2.66663 3.41333 2.66663 2.26666 2.97329C1.95283 3.06208 1.66798 3.23212 1.44089 3.46623C1.21381 3.70034 1.05252 3.99023 0.97333 4.30663C0.763473 5.47033 0.660821 6.65083 0.666664 7.83329C0.659183 9.02466 0.761842 10.2142 0.97333 11.3866C1.06064 11.6932 1.22553 11.9721 1.45209 12.1963C1.67865 12.4205 1.95921 12.5825 2.26666 12.6666C3.41333 12.9733 8 12.9733 8 12.9733C8 12.9733 12.5867 12.9733 13.7333 12.6666C14.0472 12.5778 14.332 12.4078 14.5591 12.1737C14.7862 11.9396 14.9475 11.6497 15.0267 11.3333C15.2349 10.1784 15.3375 9.00685 15.3333 7.83329C15.3408 6.64193 15.2382 5.45242 15.0267 4.27996Z" stroke="#3271DD" stroke-width="1.6" stroke-linecap="round" stroke-linejoin="round"/>
<path d="M6.5 10.0133L10.3333 7.83329L6.5 5.65329V10.0133Z" stroke="#3271DD" stroke-width="1.6" stroke-linecap="round" stroke-linejoin="round"/>
</g>
<defs>
<clipPath id="clip0_13_885">
<rect width="16" height="16" fill="white"/>
</clipPath>
</defs>
</svg>
