<svg width="16" height="16" viewBox="0 0 16 16" fill="none" xmlns="http://www.w3.org/2000/svg">
<path fill-rule="evenodd" clip-rule="evenodd" d="M2.60002 2.9999C2.60002 2.77899 2.77911 2.5999 3.00002 2.5999H5.50002C5.8314 2.5999 6.10002 2.33127 6.10002 1.9999C6.10002 1.66853 5.8314 1.3999 5.50002 1.3999H3.00002C2.11637 1.3999 1.40002 2.11625 1.40002 2.9999V5.4999C1.40002 5.83127 1.66865 6.0999 2.00002 6.0999C2.3314 6.0999 2.60002 5.83127 2.60002 5.4999V2.9999ZM10.5 1.3999C10.1687 1.3999 9.90002 1.66853 9.90002 1.9999C9.90002 2.33127 10.1687 2.5999 10.5 2.5999H13C13.2209 2.5999 13.4 2.77899 13.4 2.9999V5.4999C13.4 5.83127 13.6687 6.0999 14 6.0999C14.3314 6.0999 14.6 5.83127 14.6 5.4999V2.9999C14.6 2.11625 13.8837 1.3999 13 1.3999H10.5ZM2.60002 10.4999C2.60002 10.1685 2.3314 9.8999 2.00002 9.8999C1.66865 9.8999 1.40002 10.1685 1.40002 10.4999V12.9999C1.40002 13.8836 2.11637 14.5999 3.00002 14.5999H5.50002C5.83139 14.5999 6.10002 14.3313 6.10002 13.9999C6.10002 13.6685 5.83139 13.3999 5.50002 13.3999H3.00002C2.77911 13.3999 2.60002 13.2208 2.60002 12.9999V10.4999ZM14.6 10.4999C14.6 10.1685 14.3314 9.8999 14 9.8999C13.6687 9.8999 13.4 10.1685 13.4 10.4999V12.9999C13.4 13.2208 13.2209 13.3999 13 13.3999H10.5C10.1687 13.3999 9.90002 13.6685 9.90002 13.9999C9.90002 14.3313 10.1687 14.5999 10.5 14.5999H13C13.8837 14.5999 14.6 13.8836 14.6 12.9999V10.4999ZM5.42429 4.57564C5.18997 4.34132 4.81007 4.34132 4.57576 4.57564C4.34145 4.80995 4.34145 5.18985 4.57576 5.42417L6.07576 6.92417C6.31007 7.15848 6.68997 7.15848 6.92429 6.92417C7.1586 6.68985 7.1586 6.30995 6.92429 6.07564L5.42429 4.57564ZM9.92429 9.07564C9.68997 8.84132 9.31008 8.84132 9.07576 9.07564C8.84145 9.30995 8.84145 9.68985 9.07576 9.92417L10.5758 11.4242C10.8101 11.6585 11.19 11.6585 11.4243 11.4242C11.6586 11.1899 11.6586 10.81 11.4243 10.5756L9.92429 9.07564Z" fill="#9CA3AF"/>
</svg>
