<svg width="16" height="16" viewBox="0 0 16 16" fill="none" xmlns="http://www.w3.org/2000/svg">
<path fill-rule="evenodd" clip-rule="evenodd" d="M4 1.39999C2.56406 1.39999 1.4 2.56405 1.4 3.99999V5.49999C1.4 5.83136 1.66863 6.09999 2 6.09999C2.33137 6.09999 2.6 5.83136 2.6 5.49999V3.99999C2.6 3.2268 3.2268 2.59999 4 2.59999H5.5C5.83137 2.59999 6.1 2.33136 6.1 1.99999C6.1 1.66862 5.83137 1.39999 5.5 1.39999H4ZM10.5 1.39999C10.1686 1.39999 9.9 1.66862 9.9 1.99999C9.9 2.33136 10.1686 2.59999 10.5 2.59999H12C12.7732 2.59999 13.4 3.2268 13.4 3.99999V5.49999C13.4 5.83136 13.6686 6.09999 14 6.09999C14.3314 6.09999 14.6 5.83136 14.6 5.49999V3.99999C14.6 2.56405 13.4359 1.39999 12 1.39999H10.5ZM2.6 10.5C2.6 10.1686 2.33137 9.89999 2 9.89999C1.66863 9.89999 1.4 10.1686 1.4 10.5V12C1.4 13.4359 2.56406 14.6 4 14.6H5.5C5.83137 14.6 6.1 14.3314 6.1 14C6.1 13.6686 5.83137 13.4 5.5 13.4H4C3.2268 13.4 2.6 12.7732 2.6 12V10.5ZM14.6 10.5C14.6 10.1686 14.3314 9.89999 14 9.89999C13.6686 9.89999 13.4 10.1686 13.4 10.5V12C13.4 12.7732 12.7732 13.4 12 13.4H10.5C10.1686 13.4 9.9 13.6686 9.9 14C9.9 14.3314 10.1686 14.6 10.5 14.6H12C13.4359 14.6 14.6 13.4359 14.6 12V10.5Z" fill="#9CA3AF"/>
</svg>
